<svg xmlns="http://www.w3.org/2000/svg" width="411.049" height="95.669" viewBox="0 0 411.049 95.669">
  <g id="layer1" transform="translate(2307.46 -1984.83)">
    <text id="text4145" transform="translate(-2288.98 2007.83)" fill="#009100" font-size="24" font-family="TrebuchetMS-Bold, Trebuchet MS" font-weight="700"><tspan x="0" y="0">a</tspan></text>
    <text id="text4153" transform="translate(-2254.52 2071.09)" fill="#009100" font-size="24" font-family="TrebuchetMS-Bold, Trebuchet MS" font-weight="700"><tspan x="0" y="0">h</tspan></text>
    <text id="text4161" transform="translate(-2253.96 2039.6)" fill="#009100" font-size="24" font-family="TrebuchetMS-Bold, Trebuchet MS" font-weight="700"><tspan x="0" y="0">e</tspan></text>
    <path id="path4165" d="M-2296.97,1988.5h-8.01a1.35,1.35,0,0,0-.63.1,1.667,1.667,0,0,0-.69.47,1.68,1.68,0,0,0-.29.5.453.453,0,0,0-.1.34v.29c0,.11-.1.22-.1.33v3.25a.82.82,0,0,0,.1.48v.51c0,.17.1.35.1.53a.934.934,0,0,0,.1.51v.53c0,.18.1.37.1.55v.59a1.369,1.369,0,0,0,.1.62,1.476,1.476,0,0,0,.1.65v13.63a3.533,3.533,0,0,1-.1,1.02,3.5,3.5,0,0,1-.1,1.01v1.02c0,.34-.1.68-.1,1.02v.98c0,.32-.1.63-.1.95s-.1.62-.1.94v.92c0,.31-.1.61-.1.92v.93c0,.3-.1.61-.1.92,0,.29-.1.6-.1.9v.91c0,.31-.1.61-.1.92a2.826,2.826,0,0,1-.1.91,2.766,2.766,0,0,1-.1.9v.9a2.647,2.647,0,0,1-.1.88v42.84a.773.773,0,0,0,.1.46v6.07c0,.1.1.21.1.31.1.16.14.31.24.45a3.837,3.837,0,0,0,.27.29,2.025,2.025,0,0,0,.4.24.645.645,0,0,0,.36.12h.21c.1,0,.17.1.25.1h2.21a.207.207,0,0,1,.22.1h6.169l.42-2.58h-8.729c.1,0,.1.1.15.1a.828.828,0,0,0,.24.15,1.93,1.93,0,0,1,.16.17.609.609,0,0,1,.16.32c0,.1.1.1.1.15h0v-3.94a.548.548,0,0,0-.1-.38v-1.59a.758.758,0,0,0-.1-.46v-42.639a2.589,2.589,0,0,1,.1-.87,2.766,2.766,0,0,1,.1-.9,2.706,2.706,0,0,1,.1-.89v-.91c0-.31.1-.61.1-.91s.1-.6.1-.91v-.91c0-.31.1-.61.1-.91v-.92c0-.31.1-.62.1-.93s.1-.61.1-.92v-.93c0-.32.1-.64.1-.96v-.98c0-.34.1-.68.1-1.01,0-.35.1-.69.1-1.04v-1.03a3.533,3.533,0,0,1,.1-1.02v-14.47a1.476,1.476,0,0,0-.1-.65v-.58a1.04,1.04,0,0,0-.1-.54,1.076,1.076,0,0,0-.1-.55v-.53a.934.934,0,0,0-.1-.51v-.5a.8.8,0,0,0-.1-.47v-3.22h0c-.1.1-.1.19-.17.26a1.24,1.24,0,0,1-.52.34c-.14,0-.29.1-.44.1h8.14l-.1-2.61Z" fill="#0169c9" stroke="#636466" stroke-linejoin="round" stroke-width="0.138"/>
    <path id="path4167" d="M-2198.6,1988.46h8.01a1.331,1.331,0,0,1,.62.1,1.682,1.682,0,0,1,.68.48,1.562,1.562,0,0,1,.3.51c0,.11.1.22.1.34,0,.1.1.19.1.28a.43.43,0,0,0,.1.33v2.8a.757.757,0,0,1-.1.46.835.835,0,0,1-.1.48v.51c0,.17-.1.34-.1.52v.52c0,.17-.1.35-.1.52a1.058,1.058,0,0,1-.1.55v.59c0,.21-.1.41-.1.62s-.1.44-.1.66a1.654,1.654,0,0,1-.1.69v.75a2.227,2.227,0,0,1-.1.8v11.39a3.5,3.5,0,0,0,.1,1.01v1.01c0,.34.1.68.1,1.02a3.533,3.533,0,0,0,.1,1.02,3.234,3.234,0,0,0,.1.98v.95a2.98,2.98,0,0,0,.1.94,2.949,2.949,0,0,0,.1.93v.92a2.918,2.918,0,0,0,.1.92v.92a2.857,2.857,0,0,0,.1.91,2.826,2.826,0,0,0,.1.91v.92a2.857,2.857,0,0,0,.1.91v45a.934.934,0,0,1-.1.51v.89a.614.614,0,0,1-.1.4.641.641,0,0,1-.1.41v.74a.5.5,0,0,1-.1.36v3.73a.388.388,0,0,1-.1.31,4.783,4.783,0,0,1-.25.45,3.63,3.63,0,0,1-.27.28,2.1,2.1,0,0,1-.41.24.592.592,0,0,1-.35.12h-.22a.267.267,0,0,0-.25.1h-8.6l-.39-2.59h8.729c-.1,0-.1.1-.15.1a.687.687,0,0,1-.24.14c-.1,0-.12.11-.16.17a.627.627,0,0,0-.17.32c0,.1-.1.1-.1.15h0v-3.94a.536.536,0,0,1,.1-.38v-.39a.548.548,0,0,1,.1-.38v-.82a.758.758,0,0,1,.1-.46v-42.63a2.618,2.618,0,0,0-.1-.88v-2.7a2.857,2.857,0,0,0-.1-.91v-.91a2.857,2.857,0,0,0-.1-.91,2.8,2.8,0,0,0-.1-.91v-.92a2.949,2.949,0,0,0-.1-.93v-.92a2.888,2.888,0,0,0-.1-.93,3.137,3.137,0,0,0-.1-.96v-.98a3.533,3.533,0,0,0-.1-1.02v-1.03c0-.34-.1-.68-.1-1.03v-13.35a1.992,1.992,0,0,1,.1-.76v-.71a1.564,1.564,0,0,1,.1-.67v-.65c0-.19.1-.39.1-.58s.1-.36.1-.55v-.54a1,1,0,0,1,.1-.53v-.51a.9.9,0,0,1,.1-.5.788.788,0,0,1,.1-.47v-3.22h0c.1.1.1.18.16.26a1.364,1.364,0,0,0,.53.35c.14,0,.28.1.44.1h-8.14l.1-2.61Z" fill="#0169c9" stroke="#636466" stroke-linejoin="round" stroke-width="0.138"/>
    <text id="text4173" transform="translate(-2217.12 2071.09)" fill="#009100" font-size="24" font-family="TrebuchetMS-Bold, Trebuchet MS" font-weight="700"><tspan x="0" y="0">i</tspan></text>
    <text id="text4177" transform="translate(-2219.18 2039.6)" fill="#009100" font-size="24" font-family="TrebuchetMS-Bold, Trebuchet MS" font-weight="700"><tspan x="0" y="0">f</tspan></text>
    <path id="path6823" d="M-2248.23,2035.26l34.16,28.81" fill="#0197fd" stroke="#0197fd" stroke-width="1.887"/>
    <path id="path6825" d="M-2213.31,2036.41l-34.29,27.16" fill="none" stroke="#f44800" stroke-width="1.887"/>
    <text id="text6912" transform="translate(-2109.31 2008.05)" fill="#009100" font-size="24" font-family="TrebuchetMS-Bold, Trebuchet MS" font-weight="700"><tspan x="0" y="0">b</tspan></text>
    <text id="text6920" transform="translate(-2143.89 2039.82)" fill="#009100" font-size="24" font-family="TrebuchetMS-Bold, Trebuchet MS" font-weight="700"><tspan x="0" y="0">d</tspan></text>
    <text id="text6928" transform="translate(-2143.32 2071.31)" fill="#009100" font-size="24" font-family="TrebuchetMS-Bold, Trebuchet MS" font-weight="700"><tspan x="0" y="0">g</tspan></text>
    <path id="path6936" d="M-2151.78,1988.71h-8a1.35,1.35,0,0,0-.63.1,1.688,1.688,0,0,0-.69.48,1.519,1.519,0,0,0-.3.5c0,.11-.1.22-.1.34,0,.1-.1.19-.1.28a.464.464,0,0,1-.1.34v3.73a.934.934,0,0,0,.1.51.969.969,0,0,0,.1.52v.52a1,1,0,0,0,.1.53v.55a1.188,1.188,0,0,0,.1.58,1.328,1.328,0,0,0,.1.62v15.3a3.432,3.432,0,0,1-.1,1.01c0,.35-.1.69-.1,1.03v1.02c0,.32-.1.65-.1.98v.95a2.949,2.949,0,0,1-.1.93c0,.31-.1.62-.1.93s-.1.61-.1.92v.92a2.857,2.857,0,0,1-.1.92,2.826,2.826,0,0,1-.1.91v.91a2.887,2.887,0,0,1-.1.92v.91a2.766,2.766,0,0,1-.1.9,2.766,2.766,0,0,1-.1.9v45.789a.536.536,0,0,0,.1.37v4.09c0,.1.1.2.1.3a.893.893,0,0,0,.24.46,3.69,3.69,0,0,0,.27.28,2.705,2.705,0,0,0,.4.25.621.621,0,0,0,.36.12c.1,0,.14.1.21.1h8.849l.41-2.59h0a.259.259,0,0,1-.25-.1h-8.469s.1.1.15.1a.984.984,0,0,0,.24.15,1.93,1.93,0,0,1,.16.17.627.627,0,0,1,.17.32c0,.1.1.1.1.15h0v-5.09a.6.6,0,0,0-.1-.4v-43.519a2.677,2.677,0,0,1,.1-.88v-.89a2.766,2.766,0,0,1,.1-.9,2.766,2.766,0,0,1,.1-.9v-.92a2.766,2.766,0,0,1,.1-.9v-.92c0-.3.1-.6.1-.91a2.918,2.918,0,0,1,.1-.92v-.92c0-.31.1-.62.1-.93v-.93c0-.31.1-.63.1-.95s.1-.66.1-.99v-1.01c0-.34.1-.69.1-1.03s.1-.69.1-1.03v-1.03a3.432,3.432,0,0,1,.1-1.01v-12.78a1.609,1.609,0,0,0-.1-.68v-.64a1.188,1.188,0,0,0-.1-.58,1.094,1.094,0,0,0-.1-.55v-.54a.986.986,0,0,0-.1-.53.9.9,0,0,0-.1-.51v-4.19h0c-.1.1-.1.18-.16.26a1.512,1.512,0,0,1-.52.34c-.15,0-.3.1-.45.1h8.14l-.1-2.61Z" fill="#0169c9" stroke="#636466" stroke-linejoin="round" stroke-width="0.138"/>
    <path id="path6938" d="M-2053.4,1988.67h8a1.241,1.241,0,0,1,.63.11,1.732,1.732,0,0,1,.68.47,1.575,1.575,0,0,1,.29.52c0,.11.1.22.1.33v.29a.431.431,0,0,0,.1.33v2.8a.773.773,0,0,1-.1.46V1996c0,.18-.1.36-.1.53v2.42a1.679,1.679,0,0,1-.1.69v15.98a3.538,3.538,0,0,0,.1,1.02v3.79a2.86,2.86,0,0,0,.1.92v3.67a2.83,2.83,0,0,0,.1.91v46.43a.758.758,0,0,1-.1.46v6.07c0,.1-.1.2-.1.31a.832.832,0,0,1-.24.45,2.466,2.466,0,0,1-.28.28,1.308,1.308,0,0,1-.4.23.682.682,0,0,1-.35.13c-.1,0-.15.1-.22.1h-8.849l-.39-2.59h8.479a.984.984,0,0,1-.24.15,1.079,1.079,0,0,0-.16.17.736.736,0,0,0-.18.32v.15h0v-5.92a.773.773,0,0,1,.1-.46V2025.1a2.83,2.83,0,0,0-.1-.91v-3.67a2.953,2.953,0,0,0-.1-.93v-3.88a3.606,3.606,0,0,0-.1-1.03v-15.14a1.726,1.726,0,0,1,.1-.71v-2.45a1.041,1.041,0,0,1,.1-.54v-2.46a.656.656,0,0,1,.1-.42v-2.35h0c0,.1.1.18.16.26a1.3,1.3,0,0,0,.51.35c.15,0,.3.1.45.1h-8.05l.1-2.61Z" fill="#0169c9" stroke="#636466" stroke-linejoin="round" stroke-width="0.138"/>
    <text id="text6944" transform="translate(-2071.92 2071.31)" fill="#009100" font-size="24" font-family="TrebuchetMS-Bold, Trebuchet MS" font-weight="700"><tspan x="0" y="0">i</tspan></text>
    <text id="text6948" transform="translate(-2073.99 2039.82)" fill="#009100" font-size="24" font-family="TrebuchetMS-Bold, Trebuchet MS" font-weight="700"><tspan x="0" y="0">f</tspan></text>
    <path id="path6952" d="M-2132.16,2034.55l62.59,28.03" fill="#0197fd" stroke="#0197fd" stroke-width="1.887"/>
    <path id="path6954" d="M-2069.02,2036.64l-64.84,25.39" fill="none" stroke="#f44800" stroke-width="1.887"/>
    <text id="text6966" transform="translate(-1996.77 2039.82)" fill="#009100" font-size="24" font-family="TrebuchetMS-Bold, Trebuchet MS" font-weight="700"><tspan x="0" y="0">d</tspan></text>
    <text id="text6970" transform="translate(-1962.21 2071.31)" fill="#009100" font-size="24" font-family="TrebuchetMS-Bold, Trebuchet MS" font-weight="700"><tspan x="0" y="0">h</tspan></text>
    <text id="text6974" transform="translate(-1996.2 2071.31)" fill="#009100" font-size="24" font-family="TrebuchetMS-Bold, Trebuchet MS" font-weight="700"><tspan x="0" y="0">g</tspan></text>
    <text id="text6978" transform="translate(-1961.65 2039.82)" fill="#009100" font-size="24" font-family="TrebuchetMS-Bold, Trebuchet MS" font-weight="700"><tspan x="0" y="0">e</tspan></text>
    <path id="path6982" d="M-2004.67,1988.71h-8a1.371,1.371,0,0,0-.63.1,1.656,1.656,0,0,0-.68.48,1.517,1.517,0,0,0-.3.5c0,.11-.1.22-.1.34v.28a.464.464,0,0,1-.1.34v3.73a.935.935,0,0,0,.1.51v2.12a1.19,1.19,0,0,0,.1.58v.62a1.521,1.521,0,0,0,.1.66v13.63a3.47,3.47,0,0,1-.1,1.01v1.01c0,.35-.1.69-.1,1.03v3.88a2.953,2.953,0,0,1-.1.93v3.67c0,.3-.1.61-.1.91v3.63a2.68,2.68,0,0,1-.1.88v42.32a.9.9,0,0,0,.1.51v6.54a.368.368,0,0,0,.1.3.894.894,0,0,0,.24.46,2.462,2.462,0,0,0,.28.28,2.169,2.169,0,0,0,.39.25.621.621,0,0,0,.36.12c.1,0,.14.1.21.1h8.85l.42-2.59h0a.284.284,0,0,1-.26-.1h-8.459s.11.1.15.1a.984.984,0,0,0,.24.15,2,2,0,0,1,.16.17.628.628,0,0,1,.17.32v.15h0v-49.889a2.739,2.739,0,0,1,.1-.89v-3.62a2.922,2.922,0,0,1,.1-.92v-3.68c0-.31.1-.62.1-.93v-.95a3.336,3.336,0,0,1,.1-.99v-1.01c0-.34.1-.69.1-1.03v-17.75a1.1,1.1,0,0,0-.1-.55v-.54a.987.987,0,0,0-.1-.53v-.51a.885.885,0,0,0-.1-.5v-3.69h0c0,.1-.1.18-.16.26a1.512,1.512,0,0,1-.52.34c-.15,0-.3.1-.45.1h8.05l-.1-2.61Z" fill="#0169c9" stroke="#636466" stroke-linejoin="round" stroke-width="0.138"/>
    <path id="path6984" d="M-1906.29,1988.67h8.01a1.259,1.259,0,0,1,.63.11,1.808,1.808,0,0,1,.68.47,1.777,1.777,0,0,1,.29.52c0,.11.1.22.1.33v5.39a.935.935,0,0,1-.1.51v2.29a1.543,1.543,0,0,1-.1.66v16.67a3.538,3.538,0,0,0,.1,1.02v3.79a2.86,2.86,0,0,0,.1.92v3.67a2.83,2.83,0,0,0,.1.91v46.89a.67.67,0,0,1-.1.43v5.64a.4.4,0,0,1-.1.31c0,.16-.14.31-.25.45a3.693,3.693,0,0,1-.28.28,1.6,1.6,0,0,1-.4.23.682.682,0,0,1-.35.13c-.1,0-.15.1-.22.1h-8.85l-.39-2.59h8.579a.984.984,0,0,1-.24.15c-.1.1-.12.11-.17.17a.714.714,0,0,0-.17.32v.15h0v-54.4a2.922,2.922,0,0,0-.1-.92v-3.68a2.953,2.953,0,0,0-.1-.93v-3.98a3.606,3.606,0,0,0-.1-1.03v-12.52a2.337,2.337,0,0,1,.1-.83v-3.37a1.1,1.1,0,0,1,.1-.55v-2.08a.789.789,0,0,1,.1-.47v-3.22h0c0,.1.1.18.16.26a1.405,1.405,0,0,0,.52.35c.15,0,.29.1.44.1h-8.04l.1-2.61Z" fill="#0169c9" stroke="#636466" stroke-linejoin="round" stroke-width="0.138"/>
    <text id="text6986" transform="translate(-1926.87 2008.05)" fill="#009100" font-size="24" font-family="TrebuchetMS-Bold, Trebuchet MS" font-weight="700"><tspan x="0" y="0">c</tspan></text>
    <path id="path6998" d="M-1989.74,2037.3l34.29,27.17" fill="#0197fd" stroke="#0197fd" stroke-width="1.887"/>
    <path id="path7000" d="M-1956.55,2036.84l-34.28,27.16" fill="none" stroke="#f44800" stroke-width="1.887"/>
    <text id="text4065-8-8-2-8" transform="translate(-2184.522 2022.355)" fill="#ef2929" font-size="34" font-family="TrebuchetMS-Bold, Trebuchet MS" font-weight="700"><tspan x="0" y="0">−</tspan></text>
    <text id="text4065-8-8-2-8-5" transform="translate(-2038.348 2022.725)" fill="#19aeff" font-size="34" font-family="TrebuchetMS-Bold, Trebuchet MS" font-weight="700"><tspan x="0" y="0">+</tspan></text>
    <path id="path8249-2" d="M-2260.36,2020.08v57.35" fill="none" stroke="#204a87" stroke-width="1.769"/>
    <path id="path8249-2-7" d="M-2202.46,2020.29v57.35" fill="none" stroke="#204a87" stroke-width="1.769"/>
    <path id="path5525" d="M-2149.47,2020.29v57.35" fill="none" stroke="#204a87" stroke-width="1.769"/>
    <path id="path5527" d="M-2055.57,2020.29v57.35" fill="none" stroke="#204a87" stroke-width="1.769"/>
    <path id="path5529" d="M-2002.25,2020.29v57.35" fill="none" stroke="#204a87" stroke-width="1.769"/>
    <path id="path5531" d="M-1943.73,2020.29v57.35" fill="none" stroke="#204a87" stroke-width="1.769"/>
    <text id="text6253" transform="translate(-2268.66 2019.4)" fill="#edd400" font-size="24" font-family="TrebuchetMS, Trebuchet MS"><tspan x="-6.012" y="0">x</tspan></text>
    <text id="text6253-3" transform="translate(-2102.82 2023.71)" fill="#edd400" font-size="24" font-family="TrebuchetMS, Trebuchet MS"><tspan x="-6.012" y="0">x</tspan></text>
    <text id="text6253-1" transform="translate(-1932.75 2019.74)" fill="#edd400" font-size="24" font-family="TrebuchetMS, Trebuchet MS"><tspan x="-6.012" y="0">x</tspan></text>
  </g>
</svg>
