<?xml version="1.0" encoding="UTF-8" standalone="no"?>
<!-- Created with Inkscape (http://www.inkscape.org/) -->

<svg
   width="411.048"
   height="92.1085"
   id="svg2"
   version="1.1"
   inkscape:version="1.1 (c68e22c387, 2021-05-23)"
   sodipodi:docname="matrix-3x3-det.svg"
   xmlns:inkscape="http://www.inkscape.org/namespaces/inkscape"
   xmlns:sodipodi="http://sodipodi.sourceforge.net/DTD/sodipodi-0.dtd"
   xmlns="http://www.w3.org/2000/svg"
   xmlns:svg="http://www.w3.org/2000/svg"
   xmlns:rdf="http://www.w3.org/1999/02/22-rdf-syntax-ns#"
   xmlns:cc="http://creativecommons.org/ns#"
   xmlns:dc="http://purl.org/dc/elements/1.1/">
  <sodipodi:namedview
     id="base"
     pagecolor="#ffffff"
     bordercolor="#666666"
     borderopacity="1.0"
     inkscape:pageopacity="0.0"
     inkscape:pageshadow="2"
     inkscape:zoom="0.18322917"
     inkscape:cx="2621.9199"
     inkscape:cy="1629.1074"
     inkscape:document-units="px"
     inkscape:current-layer="layer1"
     showgrid="false"
     inkscape:window-width="1920"
     inkscape:window-height="1005"
     inkscape:window-x="1911"
     inkscape:window-y="-9"
     inkscape:window-maximized="1"
     showborder="true"
     inkscape:pagecheckerboard="0" />
  <defs
     id="defs4">
    <marker
       style="overflow:visible"
       id="Arrow1MstartV"
       refX="0"
       refY="0"
       orient="auto"
       inkscape:stockid="Arrow1MstartV">
      <path
         inkscape:connector-curvature="0"
         transform="matrix(0.4,0,0,0.4,4,0)"
         style="fill:#f44800;fill-rule:evenodd;stroke:#f44800;stroke-width:1pt;marker-start:none"
         d="M 0,0 5,-5 -12.5,0 5,5 Z"
         id="path5843" />
    </marker>
    <marker
       style="overflow:visible"
       id="Arrow1MendM"
       refX="0"
       refY="0"
       orient="auto"
       inkscape:stockid="Arrow1MendM">
      <path
         inkscape:connector-curvature="0"
         transform="matrix(-0.4,0,0,-0.4,-4,0)"
         style="fill:#f44800;fill-rule:evenodd;stroke:#f44800;stroke-width:1pt;marker-start:none"
         d="M 0,0 5,-5 -12.5,0 5,5 Z"
         id="path5846" />
    </marker>
    <marker
       style="overflow:visible"
       id="Arrow1MstartH"
       refX="0"
       refY="0"
       orient="auto"
       inkscape:stockid="Arrow1MstartH">
      <path
         inkscape:connector-curvature="0"
         transform="matrix(0.4,0,0,0.4,4,0)"
         style="fill:#0197fd;fill-rule:evenodd;stroke:#0197fd;stroke-width:1pt;marker-start:none"
         d="M 0,0 5,-5 -12.5,0 5,5 Z"
         id="path5849" />
    </marker>
    <marker
       style="overflow:visible"
       id="Arrow1Mendj"
       refX="0"
       refY="0"
       orient="auto"
       inkscape:stockid="Arrow1Mendj">
      <path
         inkscape:connector-curvature="0"
         transform="matrix(-0.4,0,0,-0.4,-4,0)"
         style="fill:#0197fd;fill-rule:evenodd;stroke:#0197fd;stroke-width:1pt;marker-start:none"
         d="M 0,0 5,-5 -12.5,0 5,5 Z"
         id="path5852" />
    </marker>
  </defs>
  <metadata
     id="metadata7">
    <rdf:RDF>
      <cc:Work
         rdf:about="">
        <dc:format>image/svg+xml</dc:format>
        <dc:type
           rdf:resource="http://purl.org/dc/dcmitype/StillImage" />
      </cc:Work>
    </rdf:RDF>
  </metadata>
  <g
     transform="translate(2307.46,-1988.39)"
     id="layer1"
     inkscape:groupmode="layer"
     inkscape:label="Layer 1">
    <text
       id="text4145"
       y="2007.83"
       x="-2288.98"
       style="color:#000000;font-style:normal;font-variant:normal;font-weight:900;font-stretch:normal;font-size:24px;line-height:0%;font-family:'Trebuchet MS';-inkscape-font-specification:'Trebuchet MS';text-indent:0;text-align:start;text-decoration:none;text-decoration-line:none;letter-spacing:normal;word-spacing:normal;text-transform:none;writing-mode:lr-tb;direction:ltr;text-anchor:start;display:inline;overflow:visible;visibility:visible;fill:#009100;fill-opacity:1;fill-rule:nonzero;stroke:none;stroke-width:0.556118;marker:none;enable-background:accumulate"
       xml:space="preserve"><tspan
         y="2007.83"
         x="-2288.98"
         id="tspan4147"
         sodipodi:role="line"
         style="font-size:24px;line-height:1;fill:#009100;fill-opacity:1;stroke-width:0.556118">a</tspan></text>
    <text
       id="text4153"
       y="2071.09"
       x="-2254.52"
       style="color:#000000;font-style:normal;font-variant:normal;font-weight:900;font-stretch:normal;font-size:24px;line-height:0%;font-family:'Trebuchet MS';-inkscape-font-specification:'Trebuchet MS';text-indent:0;text-align:start;text-decoration:none;text-decoration-line:none;letter-spacing:normal;word-spacing:normal;text-transform:none;writing-mode:lr-tb;direction:ltr;text-anchor:start;display:inline;overflow:visible;visibility:visible;fill:#009100;fill-opacity:1;fill-rule:nonzero;stroke:none;stroke-width:0.556118;marker:none;enable-background:accumulate"
       xml:space="preserve"><tspan
         y="2071.09"
         x="-2254.52"
         id="tspan4155"
         sodipodi:role="line"
         style="font-size:24px;line-height:1;fill:#009100;fill-opacity:1;stroke-width:0.556118">h</tspan></text>
    <text
       id="text4161"
       y="2039.6"
       x="-2253.96"
       style="color:#000000;font-style:normal;font-variant:normal;font-weight:900;font-stretch:normal;font-size:24px;line-height:0%;font-family:'Trebuchet MS';-inkscape-font-specification:'Trebuchet MS';text-indent:0;text-align:start;text-decoration:none;text-decoration-line:none;letter-spacing:normal;word-spacing:normal;text-transform:none;writing-mode:lr-tb;direction:ltr;text-anchor:start;display:inline;overflow:visible;visibility:visible;fill:#009100;fill-opacity:1;fill-rule:nonzero;stroke:none;stroke-width:0.556118;marker:none;enable-background:accumulate"
       xml:space="preserve"><tspan
         y="2039.6"
         x="-2253.96"
         id="tspan4163"
         sodipodi:role="line"
         style="font-size:24px;line-height:1;fill:#009100;fill-opacity:1;stroke-width:0.556118">e</tspan></text>
    <path
       inkscape:connector-curvature="0"
       style="color:#000000;display:inline;overflow:visible;visibility:visible;fill:#0169c9;fill-opacity:1;fill-rule:nonzero;stroke:#636466;stroke-width:0.138454;stroke-linecap:butt;stroke-linejoin:round;stroke-miterlimit:4;stroke-dasharray:none;stroke-dashoffset:0;stroke-opacity:1;marker:none;enable-background:accumulate"
       id="path4165"
       d="m -2296.97,1988.5 c -0.1,0 -0.18,0 -0.26,0 -0.1,0 -0.16,0 -0.25,0 -0.1,0 -0.17,0 -0.26,0 -0.12,0 -0.25,0 -0.37,0 -0.15,0 -0.31,0 -0.47,0 -0.14,0 -0.29,0 -0.44,0 -0.11,0 -0.23,0 -0.35,0 -0.13,0 -0.25,0 -0.38,0 -0.13,0 -0.25,0 -0.37,0 -0.12,0 -0.24,0 -0.36,0 -0.12,0 -0.23,0 -0.35,0 -0.1,0 -0.2,0 -0.31,0 -0.1,0 -0.19,0 -0.29,0 -0.1,0 -0.18,0 -0.28,0 -0.1,0 -0.17,0 -0.26,0 -0.1,0 -0.17,0 -0.26,0 -0.1,0 -0.14,0 -0.21,0 -0.1,0 -0.18,0 -0.26,0 -0.1,0 -0.17,0 -0.26,0 -0.1,0 -0.16,0 -0.24,0 -0.1,0 -0.15,0 -0.23,0 -0.1,0 -0.14,0 -0.21,0 -0.1,0 -0.13,0 -0.2,0 -0.1,0 -0.11,0 -0.17,0 -0.1,0 -0.11,0 -0.16,0 0,0 -0.11,0 -0.16,0 -0.1,0 -0.1,0 -0.14,0 -0.1,0 -0.1,0 -0.12,0 -0.1,0 -0.1,0 -0.12,0 0,0 -0.1,0 -0.11,0 -0.1,0 -0.11,0 -0.16,0 -0.22,0 -0.43,0 -0.63,0.1 -0.28,0.1 -0.5,0.26 -0.69,0.47 -0.13,0.15 -0.22,0.32 -0.29,0.5 -0.1,0.11 -0.1,0.23 -0.1,0.34 0,0.1 0,0.19 0,0.29 0,0.11 -0.1,0.22 -0.1,0.33 0,0.1 0,0.18 0,0.27 0,0.1 0,0.2 0,0.29 0,0.11 0,0.21 0,0.31 0,0.11 0,0.23 0,0.34 0,0.11 0,0.23 0,0.35 0,0.13 0,0.25 0,0.38 0,0.14 0,0.27 0,0.41 0,0.15 0,0.3 0,0.45 0,0.15 0,0.3 0,0.45 0,0.17 0,0.32 0.1,0.48 0,0.17 0,0.34 0,0.51 0,0.17 0.1,0.35 0.1,0.53 0,0.17 0,0.34 0.1,0.51 0,0.18 0,0.36 0,0.53 0,0.18 0.1,0.37 0.1,0.55 0,0.2 0,0.39 0,0.59 0,0.2 0,0.41 0.1,0.62 0,0.21 0,0.44 0.1,0.65 0,0.24 0,0.46 0,0.7 0,0.24 0,0.5 0,0.75 0,0.26 0,0.53 0,0.8 0,0.28 0,0.57 0,0.85 0,0.31 0,0.62 0,0.92 0,0.31 0,0.63 0,0.94 0,0.31 0,0.63 0,0.94 0,0.32 0,0.64 0,0.95 0,0.32 0,0.64 0,0.96 0,0.31 0,0.63 0,0.95 0,0.31 0,0.63 0,0.96 0,0.31 0,0.63 0,0.96 0,0.32 0,0.64 0,0.97 0,0.33 0,0.65 0,0.98 0,0.34 0,0.67 0,1 0,0.34 0,0.68 -0.1,1.02 0,0.33 0,0.67 -0.1,1.01 0,0.34 0,0.68 0,1.02 0,0.34 -0.1,0.68 -0.1,1.02 0,0.32 0,0.65 0,0.98 0,0.32 -0.1,0.63 -0.1,0.95 0,0.31 -0.1,0.62 -0.1,0.94 0,0.3 0,0.61 0,0.92 0,0.31 -0.1,0.61 -0.1,0.92 0,0.31 0,0.62 0,0.93 0,0.3 -0.1,0.61 -0.1,0.92 0,0.29 -0.1,0.6 -0.1,0.9 0,0.3 0,0.61 0,0.91 0,0.31 -0.1,0.61 -0.1,0.92 0,0.3 0,0.61 -0.1,0.91 0,0.3 0,0.6 -0.1,0.9 0,0.3 0,0.6 0,0.9 0,0.29 0,0.59 -0.1,0.88 0,0.29 0,0.58 0,0.88 0,0.29 0,0.59 0,0.88 0,0.29 0,0.59 0,0.89 0,0.3 0,0.6 0,0.89 0,0.3 0,0.6 0,0.9 0,0.3 0,0.6 0,0.89 0,0.31 0,0.62 0,0.92 0,0.31 0,0.62 0,0.93 0,0.31 0,0.62 0,0.93 0,0.32 0,0.64 0,0.96 0,0.32 0,0.64 0,0.97 0,0.31 0,0.64 0,0.96 0,0.32 0,0.63 0,0.94 0,0.31 0,0.62 0,0.93 0,0.31 0,0.62 0,0.93 0,0.3 0,0.61 0,0.91 0,0.31 0,0.62 0,0.93 0,0.31 0,0.62 0,0.93 0,0.32 0,0.63 0,0.94 0,0.32 0,0.64 0,0.95 0,0.32 0,0.63 0,0.94 0,0.3 0,0.61 0,0.92 0,0.3 0,0.61 0,0.91 0,0.3 0,0.61 0,0.9 0,0.31 0,0.61 0,0.91 0,0.3 0,0.61 0,0.9 0,0.3 0,0.59 0,0.89 0,0.29 0,0.58 0,0.87 0,0.3 0,0.59 0,0.88 0,0.3 0,0.59 0,0.88 0,0.3 0,0.59 0,0.88 0,0.3 0,0.59 0,0.89 0,0.29 0,0.58 0,0.88 0,0.29 0,0.58 0,0.87 0,0.29 0,0.59 0,0.88 0,0.29 0,0.58 0,0.87 0,0.29 0,0.57 0,0.86 0,0.27 0,0.55 0,0.82 0,0.26 0,0.52 0,0.78 0,0.25 0,0.49 0,0.74 0,0.22 0,0.46 0,0.69 0,0.22 0,0.43 0,0.65 0,0.21 0,0.42 0,0.62 0,0.2 0,0.41 0,0.61 0,0.2 0,0.4 0,0.6 0,0.19 0,0.38 0,0.58 0,0.18 0,0.37 0,0.55 0,0.19 0,0.37 0,0.56 0,0.18 0,0.36 0,0.54 0,0.17 0,0.33 0,0.51 0,0.16 0,0.32 0,0.49 0,0.17 0,0.34 0,0.51 0,0.15 0,0.31 0.1,0.46 0,0.14 0,0.29 0,0.43 0,0.13 0,0.26 0,0.39 0,0.14 0,0.27 0,0.41 0,0.13 0,0.25 0,0.38 0,0.13 0,0.25 0,0.37 0,0.12 0,0.24 0,0.36 0,0.11 0,0.23 0,0.34 0,0.11 0,0.22 0,0.33 0,0.11 0,0.21 0,0.31 0,0.1 0,0.21 0,0.3 0,0.1 0,0.18 0,0.28 0,0.1 0,0.17 0,0.25 0,0.1 0,0.15 0,0.23 0,0.1 0,0.15 0,0.22 0,0.1 0,0.13 0,0.19 0,0.1 0,0.13 0,0.19 0,0 0,0.11 0,0.16 0,0.1 0,0.1 0,0.16 0,0.1 0,0.1 0,0.14 0,0 0,0.1 0,0.13 0,0.1 0,0.1 0,0.12 0,0 0,0.1 0,0.11 0,0.1 0,0.1 0,0.1 0,0.1 0,0.11 0,0.17 0,0.1 0.1,0.21 0.1,0.31 0.1,0.16 0.14,0.31 0.24,0.45 0.1,0.11 0.17,0.2 0.27,0.29 0.12,0.1 0.26,0.17 0.4,0.24 0.12,0.1 0.24,0.1 0.36,0.12 0.1,0 0.14,0 0.21,0 0.1,0 0.17,0.1 0.25,0.1 0.1,0 0.12,0 0.19,0 0.1,0 0.14,0 0.21,0 0.1,0 0.16,0 0.24,0 0.1,0 0.13,0 0.19,0 0.1,0 0.16,0 0.24,0 0.1,0 0.17,0 0.25,0 0.1,0 0.17,0 0.26,0 0.1,0 0.15,0 0.23,0 0.1,0 0.15,0 0.23,0 0.1,0 0.11,0 0.17,0 0.1,0 0.15,0 0.22,0.1 0.1,0 0.17,0 0.25,0 0.1,0 0.15,0 0.23,0 0.1,0 0.14,0 0.21,0 0.1,0 0.14,0 0.21,0 0.1,0 0.14,0 0.2,0 0.1,0 0.13,0 0.2,0 0.1,0 0.14,0 0.21,0 0.1,0 0.17,0 0.25,0 0.1,0 0.17,0 0.25,0 0.1,0 0.16,0 0.23,0 0.1,0 0.19,0 0.28,0 0.1,0 0.19,0 0.29,0 0.1,0 0.17,0 0.25,0 0.1,0 0.16,0 0.23,0 0.1,0 0.16,0 0.23,0 0.1,0 0.17,0 0.25,0 0.1,0 0.15,0 0.23,0 0.1,0 0.15,0 0.22,0 0.1,0 0.13,0 0.2,0 0.1,0 0.15,0 0.22,0 0.1,0 0.14,0 0.2,0 0.1,0 0.12,0 0.18,0 0.1,0 0.12,0 0.18,0 0,0 0.1,0 0.15,0 0.1,0 0.13,0 0.2,0 0.1,0 0.11,0 0.17,0 0,0 0.11,0 0.16,0 0.1,0 0.1,0 0.15,0 0.1,0 0.1,0 0.14,0 0.1,0 0.1,0 0,0 0,0 0.42,-2.58 0.42,-2.58 v 0 c -0.1,0 -0.17,0 -0.26,0 -0.1,0 -0.1,0 -0.14,0 0,0 -0.1,0 -0.15,0 0,0 -0.11,0 -0.16,0 -0.1,0 -0.12,0 -0.18,0 -0.1,0 -0.13,0 -0.19,0 -0.1,0 -0.17,0 -0.25,0 -0.1,0 -0.15,0 -0.22,0 -0.1,0 -0.15,0 -0.23,0 -0.1,0 -0.14,0 -0.21,0 -0.1,0 -0.15,0 -0.22,0 -0.1,0 -0.14,0 -0.21,0 -0.1,0 -0.15,0 -0.22,0 -0.1,0 -0.16,0 -0.23,0 -0.1,0 -0.17,0 -0.26,0 -0.1,0 -0.16,0 -0.24,0 -0.1,0 -0.16,0 -0.24,0 -0.1,0 -0.16,0 -0.25,0 -0.1,0 -0.14,0 -0.22,0 -0.1,0 -0.13,0 -0.2,0 -0.1,0 -0.16,0 -0.23,0 -0.1,0 -0.13,0 -0.2,0 -0.1,0 -0.13,0 -0.19,0 -0.1,0 -0.12,0 -0.19,0 -0.1,0 -0.12,0 -0.19,0 -0.1,0 -0.12,0 -0.19,0 -0.1,0 -0.13,0 -0.19,0 -0.1,0 -0.15,0 -0.22,0 -0.1,0 -0.14,0 -0.22,0 -0.1,0 -0.14,0 -0.21,0 -0.1,0 -0.14,0 -0.21,0 -0.1,0 -0.17,0 -0.25,0 -0.1,0 -0.15,0 -0.22,0 -0.1,0 -0.16,0 -0.24,0 -0.1,0 -0.15,0 -0.23,0 -0.1,0 -0.15,0 -0.23,0 -0.1,0 -0.14,0 -0.22,0 -0.1,0 -0.17,0 -0.25,0 -0.1,0 -0.13,0 -0.19,0 -0.1,0 -0.1,0 -0.15,0 -0.1,0 -0.1,0 -0.13,0 -0.1,0 0,0 0,0 0,0 -0.1,0 -0.1,0 0.1,0 0.1,0.1 0.15,0.1 0.1,0.1 0.16,0.1 0.24,0.15 0.1,0.1 0.11,0.11 0.16,0.17 0.1,0.1 0.13,0.2 0.16,0.32 0,0.1 0.1,0.1 0.1,0.15 0,-0.1 0,0.1 0,0 0,-0.1 0,-0.1 0,-0.1 0,-0.1 0,-0.1 0,-0.11 0,0 0,-0.1 0,-0.12 0,-0.1 0,-0.1 0,-0.13 0,0 0,-0.1 0,-0.14 0,-0.1 0,-0.1 0,-0.16 0,-0.1 0,-0.11 0,-0.16 0,-0.1 0,-0.12 0,-0.18 0,-0.1 0,-0.13 0,-0.2 0,-0.1 0,-0.14 0,-0.21 0,-0.1 0,-0.16 0,-0.24 0,-0.1 0,-0.16 0,-0.25 0,-0.1 0,-0.18 0,-0.27 0,-0.1 0,-0.2 0,-0.3 0,-0.11 0,-0.21 0,-0.32 0,-0.11 0,-0.22 0,-0.33 0,-0.12 0,-0.24 0,-0.36 0,-0.12 0,-0.24 0,-0.36 0,-0.13 0,-0.25 -0.1,-0.38 0,-0.13 0,-0.26 0,-0.39 0,-0.13 0,-0.25 0,-0.38 0,-0.13 0,-0.27 0,-0.4 0,-0.14 0,-0.28 0,-0.42 0,-0.16 0,-0.31 -0.1,-0.46 0,-0.16 0,-0.3 0,-0.45 0,-0.16 0,-0.31 0,-0.46 0,-0.17 0,-0.33 0,-0.49 0,-0.18 0,-0.36 0,-0.53 0,-0.18 0,-0.36 0,-0.54 0,-0.18 0,-0.37 0,-0.55 0,-0.2 0,-0.39 0,-0.58 0,-0.21 0,-0.4 0,-0.6 0,-0.21 0,-0.41 0,-0.61 0,-0.21 0,-0.42 0,-0.62 0,-0.22 0,-0.44 0,-0.66 0,-0.23 0,-0.46 0,-0.69 0,-0.25 0,-0.49 0,-0.74 0,-0.25 0,-0.52 0,-0.77 0,-0.28 0,-0.56 0,-0.83 0,-0.29 0,-0.57 0,-0.86 0,-0.29 0,-0.58 0,-0.87 0,-0.3 0,-0.58 0,-0.88 0,-0.29 0,-0.58 0,-0.87 0,-0.3 0,-0.59 0,-0.89 0,-0.29 0,-0.59 0,-0.89 0,-0.29 0,-0.58 0,-0.88 0,-0.29 0,-0.59 0,-0.89 0,-0.29 0,-0.58 0,-0.88 0,-0.29 0,-0.58 0,-0.88 0,-0.29 0,-0.59 0,-0.89 0,-0.29 0,-0.59 0,-0.89 0,-0.3 0,-0.6 0,-0.9 0,-0.3 0,-0.61 0,-0.91 0,-0.31 0,-0.61 0,-0.91 0,-0.31 0,-0.62 0,-0.93 0,-0.31 0,-0.63 0,-0.94 0,-0.31 0,-0.62 0,-0.94 0,-0.31 0,-0.63 0,-0.94 0,-0.31 0,-0.63 0,-0.94 0,-0.31 0,-0.62 0,-0.93 0,-0.31 0,-0.61 0,-0.92 0,-0.31 0,-0.61 0,-0.92 0,-0.31 0,-0.62 0,-0.93 0,-0.32 0,-0.63 0,-0.95 0,-0.32 0,-0.64 0,-0.96 0,-0.33 0,-0.65 0,-0.97 0,-0.32 0,-0.63 0,-0.95 0,-0.31 0,-0.63 0,-0.94 0,-0.3 0,-0.61 0,-0.9 0,-0.3 0,-0.6 0,-0.9 0,-0.3 0,-0.6 0,-0.89 0,-0.3 0,-0.6 0,-0.9 0,-0.3 0,-0.59 0,-0.88 0,-0.3 0,-0.59 0,-0.88 0,-0.29 0,-0.57 0,-0.86 0,-0.29 0,-0.57 0,-0.86 0,-0.29 0,-0.58 0.1,-0.87 0,-0.3 0,-0.6 0.1,-0.9 0,-0.3 0,-0.59 0.1,-0.89 0,-0.31 0,-0.61 0,-0.91 0,-0.31 0.1,-0.61 0.1,-0.91 0,-0.31 0.1,-0.6 0.1,-0.91 0,-0.3 0,-0.61 0,-0.91 0,-0.31 0.1,-0.61 0.1,-0.91 0,-0.31 0,-0.61 0,-0.92 0,-0.31 0.1,-0.62 0.1,-0.93 0,-0.31 0.1,-0.61 0.1,-0.92 0,-0.32 0,-0.62 0,-0.93 0,-0.32 0.1,-0.64 0.1,-0.96 0,-0.33 0,-0.66 0,-0.98 0,-0.34 0.1,-0.68 0.1,-1.01 0,-0.35 0.1,-0.69 0.1,-1.04 0,-0.34 0,-0.68 0,-1.03 0,-0.34 0,-0.68 0.1,-1.02 0,-0.34 0,-0.68 0,-1.02 0,-0.33 0,-0.67 0,-1 0,-0.33 0,-0.66 0,-0.99 0,-0.33 0,-0.65 0,-0.98 0,-0.32 0,-0.64 0,-0.96 0,-0.32 0,-0.64 0,-0.95 0,-0.32 0,-0.64 0,-0.96 0,-0.31 0,-0.63 0,-0.95 0,-0.31 0,-0.63 0,-0.95 0,-0.31 0,-0.63 0,-0.95 0,-0.3 0,-0.6 0,-0.91 0,-0.29 0,-0.59 0,-0.88 0,-0.27 0,-0.55 0,-0.82 0,-0.26 0,-0.51 0,-0.77 0,-0.23 0,-0.47 0,-0.71 0,-0.22 0,-0.45 0,-0.67 0,-0.22 0,-0.43 -0.1,-0.65 0,-0.19 0,-0.38 0,-0.58 0,-0.18 0,-0.36 -0.1,-0.54 0,-0.18 0,-0.37 -0.1,-0.55 0,-0.18 0,-0.35 0,-0.53 0,-0.17 0,-0.34 -0.1,-0.51 0,-0.17 0,-0.33 0,-0.5 0,-0.16 0,-0.31 -0.1,-0.47 0,-0.15 0,-0.3 0,-0.45 0,-0.14 0,-0.27 0,-0.42 0,-0.13 0,-0.25 0,-0.38 0,-0.13 0,-0.25 0,-0.37 0,-0.1 0,-0.21 0,-0.31 0,-0.1 0,-0.19 0,-0.29 0,-0.1 0,-0.16 0,-0.24 0,-0.1 0,-0.16 0,-0.24 0,-0.1 0,-0.16 0,-0.24 0,0 0,-0.1 0,-0.15 0,-0.1 0,-0.1 0,-0.13 0,0 0,-0.1 0,0 -0.1,0.1 -0.1,0.19 -0.17,0.26 -0.14,0.15 -0.31,0.27 -0.52,0.34 -0.14,0 -0.29,0.1 -0.44,0.1 -0.11,0 0,0 0.1,0 0,0 0.1,0 0.11,0 0.1,0 0.1,0 0.11,0 0.1,0 0.1,0 0.13,0 0.1,0 0.1,0 0.14,0 0.1,0 0.1,0 0.15,0 0.1,0 0.11,0 0.17,0 0,0 0.11,0 0.17,0 0.1,0 0.13,0 0.2,0 0.1,0 0.14,0 0.2,0 0.1,0 0.15,0 0.23,0 0.1,0 0.16,0 0.24,0 0.1,0 0.17,0 0.25,0 0.1,0 0.17,0 0.25,0 0.1,0 0.19,0 0.28,0 0.1,0 0.16,0 0.25,0 0.1,0 0.18,0 0.27,0 0.1,0 0.2,0 0.31,0 0.1,0 0.21,0 0.31,0 0.11,0 0.21,0 0.32,0 0.11,0 0.22,0 0.34,0 0.12,0 0.24,0 0.36,0 0.12,0 0.24,0 0.37,0 0.13,0 0.26,0 0.39,0 0.16,0 0.31,0 0.47,0 0.12,0 0.25,0 0.38,0 0.1,0 0.22,0 0.33,0 0.12,0 0.24,0 0.37,0 0.13,0 0.25,0 0.38,0 0.1,0 0.19,0 0.29,0 0.1,0 0.18,0 0.27,0 0,0 -0.1,-2.61 -0.1,-2.61 z" />
    <path
       inkscape:connector-curvature="0"
       d="m -2198.6,1988.46 c 0.1,0 0.17,0 0.25,0 0.1,0 0.17,0 0.25,0 0.1,0 0.17,0 0.27,0 0.12,0 0.24,0 0.36,0 0.16,0 0.31,0 0.47,0 0.15,0 0.29,0 0.44,0 0.12,0 0.23,0 0.35,0 0.13,0 0.26,0 0.38,0 0.13,0 0.25,0 0.38,0 0.11,0 0.23,0 0.36,0 0.11,0 0.22,0 0.34,0 0.1,0 0.21,0 0.31,0 0.1,0 0.2,0 0.29,0 0.1,0 0.18,0 0.28,0 0.1,0 0.18,0 0.27,0 0.1,0 0.17,0 0.25,0 0.1,0 0.15,0 0.22,0 0.1,0 0.17,0 0.25,0 0.1,0 0.17,0 0.26,0 0.1,0 0.17,0 0.25,0 0.1,0 0.15,0 0.23,0 0.1,0 0.14,0 0.21,0 0.1,0 0.12,0 0.19,0 0.1,0 0.12,0 0.17,0 0.1,0 0.12,0 0.17,0 0.1,0 0.1,0 0.15,0 0.1,0 0.1,0 0.14,0 0.1,0 0.1,0 0.13,0 0.1,0 0.1,0 0.11,0 0.1,0 0.1,0 0.11,0 0.1,0 0.11,0 0.17,0 0.21,0 0.42,0 0.62,0.1 0.28,0.1 0.5,0.28 0.68,0.48 0.14,0.15 0.23,0.33 0.3,0.51 0,0.11 0.1,0.22 0.1,0.34 0,0.1 0.1,0.19 0.1,0.28 0,0.11 0,0.22 0.1,0.33 0,0.1 0,0.19 0,0.28 0,0.1 0,0.19 0,0.29 0,0.11 0,0.21 0,0.31 0,0.11 0,0.22 0,0.33 0,0.12 0,0.24 0,0.36 0,0.12 0,0.25 0,0.37 0,0.14 0,0.28 0,0.42 0,0.15 0,0.3 0,0.44 0,0.16 0,0.31 -0.1,0.46 0,0.16 0,0.32 -0.1,0.48 0,0.17 0,0.34 0,0.51 0,0.17 -0.1,0.34 -0.1,0.52 0,0.17 0,0.34 0,0.52 0,0.17 -0.1,0.35 -0.1,0.52 0,0.19 0,0.37 -0.1,0.55 0,0.2 0,0.39 0,0.59 0,0.21 -0.1,0.41 -0.1,0.62 0,0.22 -0.1,0.44 -0.1,0.66 0,0.23 0,0.46 -0.1,0.69 0,0.25 0,0.5 0,0.75 0,0.26 0,0.53 -0.1,0.8 0,0.29 0,0.57 0,0.86 0,0.3 0,0.6 0,0.91 0,0.31 0,0.62 0,0.94 0,0.32 0,0.63 0,0.94 0,0.32 0,0.64 0,0.95 0,0.32 0,0.64 0,0.95 0,0.32 0,0.64 0,0.96 0,0.32 0,0.64 0,0.96 0,0.31 0,0.64 0,0.96 0,0.32 0,0.65 0,0.97 0,0.33 0,0.66 0,0.99 0,0.33 0,0.67 0,1 0,0.33 0,0.67 0.1,1.01 0,0.33 0,0.67 0,1.01 0,0.34 0.1,0.68 0.1,1.02 0,0.34 0,0.68 0.1,1.02 0,0.33 0,0.66 0.1,0.98 0,0.32 0,0.64 0,0.95 0,0.32 0,0.63 0.1,0.94 0,0.31 0,0.62 0.1,0.93 0,0.3 0,0.61 0,0.92 0,0.3 0,0.61 0.1,0.92 0,0.31 0,0.61 0,0.92 0,0.3 0,0.6 0.1,0.91 0,0.3 0,0.61 0.1,0.91 0,0.3 0,0.61 0,0.92 0,0.3 0,0.6 0.1,0.91 0,0.3 0,0.6 0,0.9 0,0.3 0,0.6 0,0.9 0,0.29 0,0.58 0,0.88 0,0.29 0,0.58 0,0.88 0,0.29 0,0.59 0,0.88 0,0.29 0,0.59 0,0.88 0,0.31 0,0.61 0,0.9 0,0.3 0,0.6 0,0.9 0,0.3 0,0.6 0,0.89 0,0.31 0,0.62 0,0.92 0,0.31 0,0.62 0,0.93 0,0.31 0,0.62 0,0.93 0,0.32 0,0.64 0,0.96 0,0.32 0,0.64 0,0.97 0,0.31 0,0.64 0,0.96 0,0.31 0,0.63 0,0.94 0,0.31 0,0.62 0,0.93 0,0.31 0,0.61 0,0.92 0,0.31 0,0.61 0,0.92 0,0.31 0,0.61 0,0.92 0,0.32 0,0.62 0,0.94 0,0.31 0,0.63 0,0.94 0,0.32 0,0.63 0,0.95 0,0.31 0,0.63 0,0.93 0,0.31 0,0.62 0,0.92 0,0.31 0,0.61 0,0.92 0,0.3 0,0.6 0,0.9 0,0.31 0,0.61 0,0.91 0,0.3 0,0.6 0,0.9 0,0.29 0,0.59 0,0.88 0,0.3 0,0.59 0,0.88 0,0.29 0,0.58 0,0.88 0,0.29 0,0.58 0,0.88 0,0.29 0,0.59 0,0.88 0,0.3 0,0.59 0,0.88 0,0.3 0,0.59 0,0.89 0,0.28 0,0.58 0,0.87 0,0.29 0,0.58 0,0.88 0,0.28 0,0.58 0,0.87 0,0.28 0,0.57 0,0.85 0,0.28 0,0.55 0,0.83 0,0.26 0,0.51 0,0.77 0,0.25 0,0.49 0,0.74 0,0.23 0,0.46 0,0.69 0,0.22 0,0.44 0,0.66 0,0.2 0,0.41 0,0.62 0,0.2 0,0.4 0,0.6 0,0.2 0,0.4 0,0.6 0,0.2 0,0.39 0,0.58 0,0.19 0,0.37 0,0.56 0,0.18 0,0.37 0,0.56 0,0.18 0,0.35 0,0.53 0,0.17 0,0.34 0,0.51 0,0.17 0,0.33 0,0.49 0,0.17 0,0.34 -0.1,0.51 0,0.16 0,0.31 0,0.47 0,0.14 0,0.28 0,0.42 0,0.13 0,0.26 -0.1,0.4 0,0.13 0,0.27 -0.1,0.41 0,0.12 0,0.25 0,0.37 0,0.13 0,0.25 0,0.37 0,0.12 0,0.24 -0.1,0.36 0,0.12 0,0.23 0,0.35 0,0.11 0,0.21 0,0.32 0,0.11 0,0.21 0,0.32 0,0.1 0,0.2 0,0.3 0,0.1 0,0.18 0,0.27 0,0.1 0,0.17 0,0.25 0,0.1 0,0.16 0,0.23 0,0.1 0,0.15 0,0.22 0,0.1 0,0.13 0,0.19 0,0.1 0,0.13 0,0.19 0,0.1 0,0.11 0,0.16 0,0.1 0,0.1 0,0.16 0,0 0,0.1 0,0.14 0,0.1 0,0.1 0,0.13 0,0 0,0.1 0,0.12 0,0.1 0,0.1 0,0.11 0,0 0,0.1 0,0.1 0,0.1 0,0.11 0,0.17 0,0.1 0,0.21 -0.1,0.31 -0.1,0.16 -0.14,0.31 -0.25,0.45 -0.1,0.11 -0.17,0.19 -0.27,0.28 -0.12,0.1 -0.27,0.17 -0.41,0.24 -0.11,0.1 -0.23,0.1 -0.35,0.12 -0.1,0 -0.14,0 -0.22,0 -0.1,0 -0.16,0 -0.25,0.1 -0.1,0 -0.12,0 -0.18,0 -0.1,0 -0.15,0 -0.22,0 -0.1,0 -0.15,0 -0.23,0 -0.1,0 -0.14,0 -0.2,0 -0.1,0 -0.16,0 -0.24,0 -0.1,0 -0.17,0 -0.25,0 -0.1,0 -0.17,0 -0.25,0 -0.1,0 -0.16,0 -0.24,0 -0.1,0 -0.15,0 -0.22,0 -0.1,0 -0.12,0 -0.18,0 -0.1,0 -0.15,0 -0.22,0 -0.1,0 -0.17,0 -0.25,0 -0.1,0 -0.15,0 -0.23,0 -0.1,0 -0.14,0 -0.21,0 -0.1,0 -0.14,0 -0.21,0 -0.1,0 -0.14,0 -0.21,0 -0.1,0 -0.13,0 -0.19,0 -0.1,0 -0.14,0 -0.21,0 -0.1,0 -0.17,0 -0.25,0 -0.1,0 -0.17,0 -0.25,0 -0.1,0 -0.16,0 -0.23,0 -0.1,0 -0.19,0 -0.28,0 -0.1,0 -0.19,0 -0.29,0 -0.1,0 -0.17,0 -0.25,0 -0.1,0 -0.15,0 -0.23,0 -0.1,0 -0.16,0 -0.24,0 -0.1,0 -0.15,0 -0.24,0 -0.1,0 -0.15,0 -0.23,0 -0.1,0 -0.14,0 -0.22,0 -0.1,0 -0.13,0 -0.2,0 -0.1,0 -0.14,0 -0.22,0 -0.1,0 -0.14,0 -0.21,0 -0.1,0 -0.11,0 -0.17,0 -0.1,0 -0.12,0 -0.18,0 -0.1,0 -0.1,0 -0.15,0 -0.1,0 -0.13,0 -0.19,0 -0.1,0 -0.12,0 -0.18,0 -0.1,0 -0.11,0 -0.16,0 0,0 -0.1,0 -0.16,0 0,0 -0.1,0 -0.13,0 -0.1,0 -0.1,0 0,0 0,0 -0.39,-2.59 -0.39,-2.59 v 0 c 0.1,0 0.17,0 0.26,0 0,0 0.1,0 0.14,0 0,0 0.1,0 0.15,0 0,0 0.11,0 0.16,0 0.1,0 0.12,0 0.17,0 0.1,0 0.14,0 0.2,0 0.1,0 0.16,0 0.25,0 0.1,0 0.15,0 0.22,0 0.1,0 0.15,0 0.22,0 0.1,0 0.15,0 0.22,0 0.1,0 0.14,0 0.21,0 0.1,0 0.15,0 0.23,0 0.1,0 0.14,0 0.21,0 0.1,0 0.15,0 0.24,0 0.1,0 0.16,0 0.24,0 0.1,0 0.17,0 0.25,0 0.1,0 0.16,0 0.24,0 0.1,0 0.16,0 0.25,0 0.1,0 0.14,0 0.21,0 0.1,0 0.14,0 0.21,0 0.1,0 0.15,0 0.23,0 0.1,0 0.13,0 0.2,0 0.1,0 0.13,0 0.19,0 0.1,0 0.12,0 0.19,0 0.1,0 0.12,0 0.18,0 0.1,0 0.13,0 0.19,0 0.1,0 0.14,0 0.2,0 0.1,0 0.14,0 0.21,0 0.1,0 0.16,0 0.23,0 0.1,0 0.14,0 0.21,0 0.1,0 0.14,0 0.21,0 0.1,0 0.17,0 0.25,0 0.1,0 0.15,0 0.22,0 0.1,0 0.16,0 0.24,0 0.1,0 0.16,0 0.23,0 0.1,0 0.15,0 0.22,0 0.1,0 0.15,0 0.23,0 0.1,0 0.17,0 0.25,0 0.1,0 0.13,0 0.19,0 0.1,0 0.1,0 0.15,0 0.1,0 0.1,0 0.13,0 0,0 0,0 0,0 0,0 0.1,0 0.1,0 -0.1,0 -0.1,0.1 -0.15,0.1 -0.1,0.1 -0.17,0.1 -0.24,0.14 -0.1,0 -0.12,0.11 -0.16,0.17 -0.1,0.1 -0.14,0.2 -0.17,0.32 0,0.1 -0.1,0.1 -0.1,0.15 0,-0.1 0,0 0,0 0,-0.1 0,-0.1 0,-0.1 0,-0.1 0,-0.1 0,-0.11 0,-0.1 0,-0.1 0,-0.12 0,-0.1 0,-0.1 0,-0.13 0,-0.1 0,-0.1 0,-0.15 0,0 0,-0.1 0,-0.15 0,0 0,-0.11 0,-0.16 0,-0.1 0,-0.13 0,-0.19 0,-0.1 0,-0.13 0,-0.19 0,-0.1 0,-0.15 0,-0.22 0,-0.1 0,-0.15 0,-0.23 0,-0.1 0,-0.17 0,-0.25 0,-0.1 0,-0.18 0,-0.27 0,-0.11 0,-0.21 0,-0.3 0,-0.11 0,-0.22 0,-0.33 0,-0.11 0,-0.22 0,-0.33 0,-0.12 0,-0.23 0,-0.35 0,-0.12 0,-0.24 0,-0.36 0,-0.13 0,-0.26 0.1,-0.38 0,-0.13 0,-0.26 0,-0.39 0,-0.13 0,-0.25 0.1,-0.38 0,-0.13 0,-0.27 0,-0.4 0,-0.14 0,-0.28 0,-0.42 0,-0.16 0,-0.31 0.1,-0.46 0,-0.16 0,-0.3 0,-0.45 0,-0.16 0,-0.31 0,-0.46 0,-0.17 0,-0.33 0,-0.49 0,-0.18 0,-0.36 0,-0.54 0,-0.17 0,-0.35 0,-0.53 0,-0.18 0,-0.37 0,-0.55 0,-0.2 0,-0.39 0,-0.58 0,-0.21 0,-0.4 0,-0.61 0,-0.2 0,-0.4 0,-0.6 0,-0.21 0,-0.42 0,-0.62 0,-0.22 0,-0.44 0,-0.66 0,-0.23 0,-0.46 0,-0.69 0,-0.25 0,-0.49 0,-0.74 0,-0.25 0,-0.52 0,-0.78 0,-0.27 0,-0.54 0,-0.82 0,-0.28 0,-0.57 0,-0.86 0,-0.29 0,-0.58 0,-0.87 0,-0.29 0,-0.59 0,-0.88 0,-0.29 0,-0.58 0,-0.87 0,-0.3 0,-0.59 0,-0.89 0,-0.3 0,-0.59 0,-0.89 0,-0.29 0,-0.58 0,-0.88 0,-0.3 0,-0.59 0,-0.88 0,-0.3 0,-0.59 0,-0.89 0,-0.29 0,-0.58 0,-0.87 0,-0.3 0,-0.6 0,-0.89 0,-0.3 0,-0.6 0,-0.9 0,-0.3 0,-0.6 0,-0.9 0,-0.3 0,-0.61 0,-0.91 0,-0.3 0,-0.61 0,-0.92 0,-0.3 0,-0.61 0,-0.92 0,-0.31 0,-0.62 0,-0.94 0,-0.31 0,-0.62 0,-0.93 0,-0.32 0,-0.63 0,-0.95 0,-0.32 0,-0.63 0,-0.94 0,-0.31 0,-0.62 0,-0.93 0,-0.31 0,-0.61 0,-0.92 0,-0.31 0,-0.61 0,-0.92 0,-0.31 0,-0.61 0,-0.93 0,-0.31 0,-0.63 0,-0.94 0,-0.33 0,-0.65 0,-0.97 0,-0.32 0,-0.65 0,-0.97 0,-0.31 0,-0.63 0,-0.95 0,-0.31 0,-0.62 0,-0.94 0,-0.3 0,-0.6 0,-0.91 0,-0.29 0,-0.59 0,-0.89 0,-0.29 0,-0.59 0,-0.9 0,-0.29 0,-0.59 0,-0.89 0,-0.29 0,-0.59 0,-0.88 0,-0.29 0,-0.59 0,-0.87 0,-0.29 0,-0.58 0,-0.87 0,-0.28 0,-0.57 0,-0.85 0,-0.3 0,-0.59 -0.1,-0.88 0,-0.3 0,-0.59 0,-0.89 0,-0.3 0,-0.6 0,-0.9 0,-0.31 0,-0.6 0,-0.91 0,-0.3 0,-0.6 -0.1,-0.91 0,-0.3 0,-0.6 0,-0.91 0,-0.3 0,-0.6 -0.1,-0.91 0,-0.31 0,-0.61 -0.1,-0.91 0,-0.31 0,-0.61 0,-0.92 0,-0.31 0,-0.62 -0.1,-0.93 0,-0.31 0,-0.61 0,-0.92 0,-0.32 0,-0.63 -0.1,-0.93 0,-0.32 0,-0.64 -0.1,-0.96 0,-0.33 0,-0.66 0,-0.98 0,-0.34 0,-0.68 -0.1,-1.02 0,-0.34 0,-0.68 0,-1.03 0,-0.34 -0.1,-0.68 -0.1,-1.03 0,-0.34 0,-0.69 0,-1.03 0,-0.33 0,-0.67 0,-1.01 0,-0.33 0,-0.67 0,-1.01 0,-0.33 0,-0.65 0,-0.98 0,-0.33 0,-0.66 0,-0.98 0,-0.32 0,-0.64 0,-0.96 0,-0.32 0,-0.64 0,-0.96 0,-0.32 0,-0.63 0,-0.95 0,-0.32 0,-0.64 0,-0.95 0,-0.32 0,-0.64 0,-0.95 0,-0.32 0,-0.63 0,-0.95 0,-0.31 0,-0.61 0,-0.91 0,-0.3 0,-0.59 0,-0.88 0,-0.27 0,-0.55 0,-0.83 0,-0.25 0,-0.51 0.1,-0.76 0,-0.24 0,-0.47 0,-0.71 0,-0.22 0,-0.45 0.1,-0.67 0,-0.22 0,-0.43 0,-0.65 0,-0.19 0.1,-0.39 0.1,-0.58 0,-0.18 0.1,-0.36 0.1,-0.55 0,-0.18 0,-0.36 0,-0.54 0,-0.18 0,-0.35 0.1,-0.53 0,-0.17 0,-0.34 0,-0.51 0,-0.17 0,-0.33 0.1,-0.5 0,-0.16 0,-0.32 0.1,-0.47 0,-0.15 0,-0.3 0,-0.45 0,-0.13 0,-0.27 0,-0.42 0,-0.12 0,-0.25 0,-0.39 0,-0.12 0,-0.24 0,-0.35 0,-0.11 0,-0.22 0,-0.32 0,-0.1 0,-0.19 0,-0.28 0,-0.1 0,-0.17 0,-0.25 0,-0.1 0,-0.16 0,-0.24 0,-0.1 0,-0.16 0,-0.24 0,0 0,-0.1 0,-0.15 0,0 0,-0.1 0,-0.13 0,0 0,-0.1 0,0 0.1,0.1 0.1,0.18 0.16,0.26 0.15,0.15 0.32,0.28 0.53,0.35 0.14,0 0.28,0.1 0.44,0.1 0.11,0 0,0 -0.1,0 -0.1,0 -0.1,0 -0.1,0 -0.1,0 -0.1,0 -0.12,0 0,0 -0.1,0 -0.13,0 -0.1,0 -0.1,0 -0.14,0 0,0 -0.1,0 -0.15,0 -0.1,0 -0.1,0 -0.16,0 -0.1,0 -0.12,0 -0.18,0 -0.1,0 -0.13,0 -0.19,0 -0.1,0 -0.14,0 -0.21,0 -0.1,0 -0.15,0 -0.23,0 -0.1,0 -0.16,0 -0.24,0 -0.1,0 -0.17,0 -0.25,0 -0.1,0 -0.17,0 -0.25,0 -0.1,0 -0.18,0 -0.27,0 -0.1,0 -0.17,0 -0.25,0 -0.1,0 -0.18,0 -0.27,0 -0.11,0 -0.21,0 -0.31,0 -0.11,0 -0.22,0 -0.32,0 -0.1,0 -0.21,0 -0.32,0 -0.11,0 -0.22,0 -0.33,0 -0.13,0 -0.25,0 -0.36,0 -0.13,0 -0.25,0 -0.37,0 -0.14,0 -0.27,0 -0.4,0 -0.16,0 -0.31,0 -0.47,0 -0.12,0 -0.24,0 -0.37,0 -0.11,0 -0.22,0 -0.33,0 -0.13,0 -0.25,0 -0.38,0 -0.12,0 -0.25,0 -0.37,0 -0.1,0 -0.2,0 -0.3,0 -0.1,0 -0.18,0 -0.27,0 0,0 0.1,-2.61 0.1,-2.61 z"
       id="path4167"
       style="color:#000000;display:inline;overflow:visible;visibility:visible;fill:#0169c9;fill-opacity:1;fill-rule:nonzero;stroke:#636466;stroke-width:0.138454;stroke-linecap:butt;stroke-linejoin:round;stroke-miterlimit:4;stroke-dasharray:none;stroke-dashoffset:0;stroke-opacity:1;marker:none;enable-background:accumulate" />
    <text
       id="text4173"
       y="2071.09"
       x="-2217.12"
       style="color:#000000;font-style:normal;font-variant:normal;font-weight:900;font-stretch:normal;font-size:24px;line-height:0%;font-family:'Trebuchet MS';-inkscape-font-specification:'Trebuchet MS';text-indent:0;text-align:start;text-decoration:none;text-decoration-line:none;letter-spacing:normal;word-spacing:normal;text-transform:none;writing-mode:lr-tb;direction:ltr;text-anchor:start;display:inline;overflow:visible;visibility:visible;fill:#009100;fill-opacity:1;fill-rule:nonzero;stroke:none;stroke-width:0.556118;marker:none;enable-background:accumulate"
       xml:space="preserve"><tspan
         y="2071.09"
         x="-2217.12"
         id="tspan4175"
         sodipodi:role="line"
         style="font-size:24px;line-height:1;fill:#009100;fill-opacity:1;stroke-width:0.556118">i</tspan></text>
    <text
       id="text4177"
       y="2039.6"
       x="-2219.18"
       style="color:#000000;font-style:normal;font-variant:normal;font-weight:900;font-stretch:normal;font-size:24px;line-height:0%;font-family:'Trebuchet MS';-inkscape-font-specification:'Trebuchet MS';text-indent:0;text-align:start;text-decoration:none;text-decoration-line:none;letter-spacing:normal;word-spacing:normal;text-transform:none;writing-mode:lr-tb;direction:ltr;text-anchor:start;display:inline;overflow:visible;visibility:visible;fill:#009100;fill-opacity:1;fill-rule:nonzero;stroke:none;stroke-width:0.556118;marker:none;enable-background:accumulate"
       xml:space="preserve"><tspan
         y="2039.6"
         x="-2219.18"
         id="tspan4179"
         sodipodi:role="line"
         style="font-size:24px;line-height:1;fill:#009100;fill-opacity:1;stroke-width:0.556118">f</tspan></text>
    <path
       inkscape:connector-curvature="0"
       style="color:#000000;display:inline;overflow:visible;visibility:visible;fill:#0197fd;stroke:#0197fd;stroke-width:1.88709;stroke-miterlimit:4;stroke-dasharray:none;marker:none;marker-start:url(#Arrow1MstartH);marker-end:url(#Arrow1Mendj);enable-background:accumulate"
       d="m -2248.23,2035.26 34.16,28.81"
       id="path6823" />
    <path
       inkscape:connector-curvature="0"
       id="path6825"
       d="m -2213.31,2036.41 -34.29,27.16"
       style="color:#000000;display:inline;overflow:visible;visibility:visible;fill:none;stroke:#f44800;stroke-width:1.88709;stroke-miterlimit:4;stroke-dasharray:none;marker:none;marker-start:url(#Arrow1MstartV);marker-end:url(#Arrow1MendM);enable-background:accumulate" />
    <text
       xml:space="preserve"
       style="color:#000000;font-style:normal;font-variant:normal;font-weight:900;font-stretch:normal;font-size:24px;line-height:0%;font-family:'Trebuchet MS';-inkscape-font-specification:'Trebuchet MS';text-indent:0;text-align:start;text-decoration:none;text-decoration-line:none;letter-spacing:normal;word-spacing:normal;text-transform:none;writing-mode:lr-tb;direction:ltr;text-anchor:start;display:inline;overflow:visible;visibility:visible;fill:#009100;fill-opacity:1;fill-rule:nonzero;stroke:none;stroke-width:0.556118;marker:none;enable-background:accumulate"
       x="-2109.31"
       y="2008.05"
       id="text6912"><tspan
         sodipodi:role="line"
         id="tspan6914"
         x="-2109.31"
         y="2008.05"
         style="font-size:24px;line-height:1;fill:#009100;fill-opacity:1;stroke-width:0.556118">b</tspan></text>
    <text
       xml:space="preserve"
       style="color:#000000;font-style:normal;font-variant:normal;font-weight:900;font-stretch:normal;font-size:24px;line-height:0%;font-family:'Trebuchet MS';-inkscape-font-specification:'Trebuchet MS';text-indent:0;text-align:start;text-decoration:none;text-decoration-line:none;letter-spacing:normal;word-spacing:normal;text-transform:none;writing-mode:lr-tb;direction:ltr;text-anchor:start;display:inline;overflow:visible;visibility:visible;fill:#009100;fill-opacity:1;fill-rule:nonzero;stroke:none;stroke-width:0.556118;marker:none;enable-background:accumulate"
       x="-2143.89"
       y="2039.82"
       id="text6920"><tspan
         sodipodi:role="line"
         id="tspan6922"
         x="-2143.89"
         y="2039.82"
         style="font-size:24px;line-height:1;fill:#009100;fill-opacity:1;stroke-width:0.556118">d</tspan></text>
    <text
       xml:space="preserve"
       style="color:#000000;font-style:normal;font-variant:normal;font-weight:900;font-stretch:normal;font-size:24px;line-height:0%;font-family:'Trebuchet MS';-inkscape-font-specification:'Trebuchet MS';text-indent:0;text-align:start;text-decoration:none;text-decoration-line:none;letter-spacing:normal;word-spacing:normal;text-transform:none;writing-mode:lr-tb;direction:ltr;text-anchor:start;display:inline;overflow:visible;visibility:visible;fill:#009100;fill-opacity:1;fill-rule:nonzero;stroke:none;stroke-width:0.556118;marker:none;enable-background:accumulate"
       x="-2143.32"
       y="2071.31"
       id="text6928"><tspan
         sodipodi:role="line"
         id="tspan6930"
         x="-2143.32"
         y="2071.31"
         style="font-size:24px;line-height:1;fill:#009100;fill-opacity:1;stroke-width:0.556118">g</tspan></text>
    <path
       inkscape:connector-curvature="0"
       d="m -2151.78,1988.71 c -0.1,0 -0.17,0 -0.25,0 -0.1,0 -0.17,0 -0.25,0 -0.1,0 -0.18,0 -0.27,0 -0.12,0 -0.24,0 -0.36,0 -0.16,0 -0.32,0 -0.47,0 -0.15,0 -0.29,0 -0.44,0 -0.12,0 -0.24,0 -0.35,0 -0.13,0 -0.26,0 -0.39,0 -0.12,0 -0.25,0 -0.37,0 -0.12,0 -0.24,0 -0.36,0 -0.11,0 -0.22,0 -0.34,0 -0.11,0 -0.21,0 -0.31,0 -0.1,0 -0.19,0 -0.29,0 -0.1,0 -0.19,0 -0.28,0 -0.1,0 -0.18,0 -0.27,0 -0.1,0 -0.17,0 -0.25,0 -0.1,0 -0.15,0 -0.22,0 -0.1,0 -0.17,0 -0.25,0 -0.1,0 -0.18,0 -0.26,0 -0.1,0 -0.16,0 -0.25,0 -0.1,0 -0.15,0 -0.23,0 -0.1,0 -0.13,0 -0.21,0 -0.1,0 -0.12,0 -0.19,0 -0.1,0 -0.12,0 -0.17,0 -0.1,0 -0.12,0 -0.17,0 -0.1,0 -0.1,0 -0.15,0 0,0 -0.1,0 -0.14,0 -0.1,0 -0.1,0 -0.13,0 0,0 -0.1,0 -0.11,0 0,0 -0.1,0 -0.11,0 -0.1,0 -0.11,0 -0.16,0 -0.22,0 -0.43,0 -0.63,0.1 -0.28,0.1 -0.5,0.27 -0.69,0.48 -0.14,0.15 -0.23,0.32 -0.3,0.5 0,0.11 -0.1,0.22 -0.1,0.34 0,0.1 -0.1,0.19 -0.1,0.28 0,0.11 0,0.22 -0.1,0.34 0,0.1 0,0.18 0,0.27 0,0.1 0,0.2 0,0.29 0,0.1 0,0.2 0,0.31 0,0.11 0,0.22 0,0.33 0,0.12 0,0.24 0,0.36 0,0.12 0,0.25 0,0.37 0,0.14 0,0.28 0,0.42 0,0.15 0,0.3 0,0.45 0,0.15 0,0.3 0,0.45 0,0.16 0,0.32 0,0.48 0,0.17 0,0.34 0.1,0.51 0,0.17 0,0.35 0.1,0.52 0,0.18 0,0.35 0,0.52 0,0.18 0,0.35 0.1,0.53 0,0.18 0,0.36 0,0.55 0,0.19 0,0.39 0.1,0.58 0,0.21 0,0.42 0.1,0.62 0,0.22 0,0.44 0,0.66 0,0.23 0,0.46 0,0.69 0,0.25 0,0.5 0,0.75 0,0.27 0,0.54 0,0.81 0,0.28 0,0.57 0,0.85 0,0.3 0,0.61 0,0.92 0,0.31 0,0.62 0,0.94 0,0.31 0,0.63 0,0.94 0,0.31 0,0.63 0,0.95 0,0.32 0,0.63 0,0.95 0,0.32 0,0.63 0,0.95 0,0.32 0,0.64 0,0.96 0,0.32 0,0.64 0,0.96 0,0.33 0,0.65 0,0.97 0,0.33 0,0.66 0,0.99 0,0.33 0,0.67 0,1 0,0.34 0,0.67 0,1.01 0,0.34 0,0.68 -0.1,1.01 0,0.35 -0.1,0.69 -0.1,1.03 0,0.33 0,0.68 0,1.02 0,0.32 -0.1,0.65 -0.1,0.98 0,0.32 0,0.63 0,0.95 0,0.31 0,0.62 -0.1,0.93 0,0.31 -0.1,0.62 -0.1,0.93 0,0.31 -0.1,0.61 -0.1,0.92 0,0.31 0,0.61 0,0.92 0,0.31 0,0.62 -0.1,0.92 0,0.3 0,0.61 -0.1,0.91 0,0.3 0,0.61 0,0.91 0,0.31 0,0.61 -0.1,0.92 0,0.3 0,0.61 0,0.91 0,0.3 0,0.6 -0.1,0.9 0,0.3 0,0.6 -0.1,0.9 0,0.29 0,0.58 0,0.88 0,0.29 0,0.58 0,0.87 0,0.3 0,0.59 0,0.89 0,0.29 0,0.59 0,0.89 0,0.3 0,0.59 0,0.89 0,0.3 0,0.6 0,0.9 0,0.3 0,0.59 0,0.89 0,0.31 0,0.61 0,0.92 0,0.31 0,0.62 0,0.93 0,0.31 0,0.62 0,0.93 0,0.32 0,0.63 0,0.95 0,0.33 0,0.65 0,0.97 0,0.32 0,0.65 0,0.96 0,0.32 0,0.64 0,0.95 0,0.31 0,0.62 0,0.93 0,0.31 0,0.62 0,0.92 0,0.31 0,0.62 0,0.92 0,0.31 0,0.62 0,0.93 0,0.3 0,0.62 0,0.93 0,0.31 0,0.63 0,0.94 0,0.32 0,0.63 0,0.95 0,0.31 0,0.62 0,0.94 0,0.3 0,0.61 0,0.92 0,0.3 0,0.6 0,0.91 0,0.3 0,0.6 0,0.9 0,0.3 0,0.61 0,0.91 0,0.3 0,0.6 0,0.9 0,0.29 0,0.59 0,0.89 0,0.29 0,0.58 0,0.87 0,0.29 0,0.59 0,0.88 0,0.29 0,0.59 0,0.88 0,0.29 0,0.59 0,0.88 0,0.29 0,0.59 0,0.88 0,0.3 0,0.59 0,0.89 0,0.29 0,0.58 0,0.87 0,0.29 0,0.59 0,0.87 0,0.3 0,0.58 0,0.88 0,0.29 0,0.57 0,0.86 0,0.27 0,0.54 0,0.82 0,0.26 0,0.52 0,0.78 0,0.24 0,0.49 0,0.73 0,0.23 0,0.46 0,0.7 0,0.21 0,0.43 0,0.65 0,0.21 0,0.41 0,0.62 0,0.2 0,0.4 0,0.61 0,0.19 0,0.4 0,0.59 0,0.2 0,0.39 0,0.58 0,0.19 0,0.37 0,0.56 0,0.19 0,0.37 0,0.56 0,0.18 0,0.36 0,0.53 0,0.17 0,0.34 0,0.51 0,0.16 0,0.33 0,0.49 0,0.18 0,0.35 0,0.51 0,0.16 0,0.31 0,0.47 0,0.14 0,0.28 0,0.42 0,0.14 0,0.27 0,0.4 0,0.13 0,0.27 0,0.41 0,0.12 0,0.25 0,0.38 0,0.12 0,0.24 0.1,0.37 0,0.12 0,0.24 0,0.36 0,0.11 0,0.22 0,0.34 0,0.11 0,0.22 0,0.33 0,0.1 0,0.21 0,0.31 0,0.1 0,0.2 0,0.3 0,0.1 0,0.18 0,0.28 0,0.1 0,0.16 0,0.24 0,0.1 0,0.16 0,0.24 0,0.1 0,0.14 0,0.21 0,0.1 0,0.14 0,0.2 0,0.1 0,0.12 0,0.18 0,0.1 0,0.12 0,0.17 0,0.1 0,0.1 0,0.15 0,0.1 0,0.1 0,0.14 0,0 0,0.1 0,0.14 0,0 0,0.1 0,0.12 0,0.1 0,0.1 0,0.1 0,0.1 0,0.1 0,0.11 0,0.1 0,0.11 0,0.17 0,0.1 0.1,0.2 0.1,0.3 0,0.17 0.14,0.32 0.24,0.46 0.1,0.11 0.18,0.2 0.27,0.28 0.12,0.1 0.26,0.17 0.4,0.25 0.12,0.1 0.23,0.1 0.36,0.12 0.1,0 0.14,0.1 0.21,0.1 0.1,0 0.16,0 0.25,0 0.1,0 0.13,0 0.19,0 0.1,0 0.14,0 0.21,0 0.1,0 0.16,0 0.24,0 0.1,0 0.13,0 0.19,0 0.1,0 0.16,0 0.24,0 0.1,0 0.17,0 0.25,0 0.1,0 0.17,0 0.25,0 0.1,0 0.16,0 0.25,0 0.1,0 0.14,0 0.21,0 0.1,0 0.12,0 0.18,0 0.1,0 0.15,0 0.23,0 0.1,0 0.16,0 0.23,0 0.1,0 0.16,0 0.24,0 0.1,0 0.14,0 0.21,0 0.1,0 0.14,0 0.21,0 0.1,0 0.14,0 0.2,0 0.1,0 0.14,0 0.2,0 0.1,0 0.14,0 0.21,0 0.1,0 0.17,0 0.25,0 0.1,0 0.17,0 0.25,0 0.1,0 0.16,0 0.23,0 0.1,0 0.19,0 0.29,0 0.1,0 0.19,0 0.28,0 0.1,0 0.17,0 0.25,0 0.1,0 0.16,0 0.23,0 0.1,0 0.16,0 0.24,0 0.1,0 0.16,0 0.24,0 0.1,0 0.16,0 0.23,0 0.1,0 0.14,0 0.21,0 0.1,0 0.15,0 0.22,0 0.1,0 0.14,0 0.21,0 0.1,0 0.14,0 0.21,0 0.1,0 0.11,0 0.17,0 0.1,0 0.12,0 0.17,0 0.1,0 0.11,0 0.17,0 0.1,0 0.12,0 0.18,0 0.1,0 0.12,0 0.18,0 0.1,0 0.11,0 0.16,0 0,0 0.1,0 0.15,0 0,0 0.1,0 0.14,0 0.1,0 0.1,0 0,0 0,0 0.41,-2.59 0.41,-2.59 v 0 c -0.1,0 -0.17,0 -0.25,-0.1 0,0 -0.1,0 -0.14,0 -0.1,0 -0.1,0 -0.15,0 -0.1,0 -0.11,0 -0.16,0 -0.1,0 -0.12,0 -0.18,0 -0.1,0 -0.13,0 -0.19,0 -0.1,0 -0.16,0 -0.25,0 -0.1,0 -0.15,0 -0.22,0 -0.1,0 -0.15,0 -0.22,0 -0.1,0 -0.15,0 -0.22,0 -0.1,0 -0.14,0 -0.22,0 -0.1,0 -0.14,0 -0.22,0 -0.1,0 -0.14,0 -0.21,0 -0.1,0 -0.16,0 -0.24,0 -0.1,0 -0.16,0 -0.24,0 -0.1,0 -0.17,0 -0.25,0 -0.1,0 -0.16,0 -0.24,0 -0.1,0 -0.16,0 -0.25,0 -0.1,0 -0.14,0 -0.22,0 -0.1,0 -0.13,0 -0.2,0 -0.1,0 -0.15,0 -0.23,0 -0.1,0 -0.14,0 -0.2,0 -0.1,0 -0.13,0 -0.19,0 -0.1,0 -0.13,0 -0.19,0 -0.1,0 -0.12,0 -0.18,0 -0.1,0 -0.13,0 -0.2,0 -0.1,0 -0.13,0 -0.19,0 -0.1,0 -0.14,0 -0.22,0 -0.1,0 -0.15,0 -0.22,0 -0.1,0 -0.14,0 -0.21,0 -0.1,0 -0.14,0 -0.21,0 -0.1,0 -0.17,0 -0.25,0 -0.1,0 -0.15,0 -0.22,0 -0.1,0 -0.16,0 -0.24,0 -0.1,0 -0.16,0 -0.23,0 -0.1,0 -0.15,0 -0.22,0 -0.1,0 -0.15,0 -0.23,0 -0.1,0 -0.16,0 -0.25,0 -0.1,0 -0.13,0 -0.19,0 0,0 -0.1,0 -0.15,0 -0.1,0 -0.1,0 -0.13,0 -0.1,0 0,0 -0.1,0 0,0 0,0 0,0 0,0 0.1,0.1 0.15,0.1 0.1,0.1 0.17,0.1 0.24,0.15 0.1,0.1 0.11,0.11 0.16,0.17 0.1,0.1 0.14,0.2 0.17,0.32 0,0.1 0.1,0.1 0.1,0.15 0,0 0,0.1 0,0 0,0 0,-0.1 0,-0.1 0,-0.1 0,-0.1 0,-0.11 0,0 0,-0.1 0,-0.12 0,0 0,-0.1 0,-0.13 0,0 0,-0.1 0,-0.14 0,-0.1 0,-0.1 0,-0.16 0,-0.1 0,-0.11 0,-0.17 0,-0.1 0,-0.12 0,-0.18 0,-0.1 0,-0.13 0,-0.19 0,-0.1 0,-0.15 0,-0.22 0,-0.1 0,-0.15 0,-0.23 0,-0.1 0,-0.17 0,-0.25 0,-0.1 0,-0.19 0,-0.28 0,-0.1 0,-0.19 0,-0.3 0,-0.1 0,-0.21 0,-0.31 0,-0.12 0,-0.23 0,-0.34 0,-0.12 0,-0.24 0,-0.35 0,-0.12 0,-0.24 0,-0.37 0,-0.12 0,-0.25 0,-0.37 0,-0.13 0,-0.26 0,-0.39 0,-0.13 0,-0.26 0,-0.38 0,-0.13 0,-0.27 -0.1,-0.4 0,-0.14 0,-0.29 0,-0.43 0,-0.15 0,-0.31 0,-0.46 0,-0.15 0,-0.3 0,-0.45 0,-0.15 0,-0.31 0,-0.46 0,-0.16 0,-0.32 0,-0.49 0,-0.17 0,-0.35 0,-0.53 0,-0.18 0,-0.35 0,-0.53 0,-0.19 0,-0.37 0,-0.56 0,-0.19 0,-0.38 0,-0.58 0,-0.2 0,-0.4 0,-0.6 0,-0.2 0,-0.4 0,-0.61 0,-0.2 0,-0.41 0,-0.62 0,-0.21 0,-0.43 0,-0.65 0,-0.23 0,-0.46 0,-0.7 0,-0.24 0,-0.49 0,-0.73 0,-0.26 0,-0.52 0,-0.78 0,-0.27 0,-0.55 0,-0.82 0,-0.29 0,-0.57 0,-0.86 0,-0.29 0,-0.58 0,-0.88 0,-0.29 0,-0.58 0,-0.87 0,-0.29 0,-0.59 0,-0.88 0,-0.29 0,-0.59 0,-0.89 0,-0.29 0,-0.58 0,-0.88 0,-0.29 0,-0.59 0,-0.88 0,-0.3 0,-0.59 0,-0.89 0,-0.29 0,-0.59 0,-0.88 0,-0.29 0,-0.59 0,-0.88 0,-0.29 0,-0.59 0,-0.89 0,-0.3 0,-0.6 0,-0.89 0,-0.31 0,-0.61 0,-0.9 0,-0.31 0,-0.61 0,-0.91 0,-0.31 0,-0.62 0,-0.92 0,-0.31 0,-0.62 0,-0.92 0,-0.32 0,-0.63 0,-0.94 0,-0.31 0,-0.63 0,-0.94 0,-0.31 0,-0.63 0,-0.94 0,-0.32 0,-0.63 0,-0.95 0,-0.3 0,-0.61 0,-0.93 0,-0.3 0,-0.61 0,-0.92 0,-0.3 0,-0.61 0,-0.91 0,-0.31 0,-0.62 0,-0.93 0,-0.32 0,-0.63 0,-0.95 0,-0.32 0,-0.64 0,-0.97 0,-0.32 0,-0.64 0,-0.96 0,-0.32 0,-0.63 0,-0.95 0,-0.32 0,-0.63 0,-0.94 0,-0.31 0,-0.61 0,-0.91 0,-0.3 0,-0.59 0,-0.89 0,-0.3 0,-0.6 0,-0.9 0,-0.3 0,-0.59 0,-0.89 0,-0.3 0,-0.59 0,-0.89 0,-0.29 0,-0.58 0,-0.87 0,-0.29 0,-0.58 0,-0.86 0,-0.29 0,-0.57 0,-0.86 0,-0.29 0,-0.58 0.1,-0.88 0,-0.29 0,-0.59 0,-0.89 0,-0.3 0,-0.6 0.1,-0.9 0,-0.3 0,-0.6 0.1,-0.9 0,-0.31 0,-0.61 0,-0.92 0,-0.3 0,-0.6 0.1,-0.9 0,-0.3 0,-0.61 0,-0.92 0,-0.3 0.1,-0.6 0.1,-0.91 0,-0.3 0,-0.61 0.1,-0.92 0,-0.3 0,-0.61 0,-0.92 0,-0.31 0.1,-0.62 0.1,-0.93 0,-0.31 0,-0.62 0,-0.93 0,-0.31 0.1,-0.63 0.1,-0.95 0,-0.33 0.1,-0.66 0.1,-0.99 0,-0.33 0,-0.67 0,-1.01 0,-0.34 0.1,-0.69 0.1,-1.03 0,-0.34 0.1,-0.69 0.1,-1.03 0,-0.34 0,-0.68 0,-1.03 0,-0.34 0,-0.68 0.1,-1.01 0,-0.34 0,-0.67 0,-1 0,-0.33 0,-0.66 0,-1 0,-0.32 0,-0.65 0,-0.97 0,-0.32 0,-0.64 0,-0.96 0,-0.32 0,-0.64 0,-0.96 0,-0.32 0,-0.63 0,-0.95 0,-0.32 0,-0.64 0,-0.95 0,-0.32 0,-0.64 0,-0.95 0,-0.32 0,-0.63 0,-0.95 0,-0.3 0,-0.61 0,-0.91 0,-0.3 0,-0.59 0,-0.88 0,-0.28 0,-0.55 0,-0.83 0,-0.25 0,-0.5 0,-0.76 0,-0.23 0,-0.47 0,-0.71 0,-0.23 0,-0.45 -0.1,-0.68 0,-0.21 0,-0.42 0,-0.64 0,-0.19 0,-0.39 -0.1,-0.58 0,-0.18 0,-0.36 -0.1,-0.55 0,-0.18 0,-0.36 0,-0.54 0,-0.18 0,-0.36 -0.1,-0.53 0,-0.18 0,-0.35 -0.1,-0.51 0,-0.17 0,-0.34 0,-0.5 0,-0.16 0,-0.32 0,-0.47 0,-0.15 0,-0.3 0,-0.45 0,-0.14 0,-0.28 0,-0.42 0,-0.13 0,-0.26 0,-0.39 0,-0.12 0,-0.24 0,-0.36 0,-0.11 0,-0.21 0,-0.32 0,-0.1 0,-0.18 0,-0.28 0,-0.1 0,-0.17 0,-0.25 0,-0.1 0,-0.15 0,-0.23 0,-0.1 0,-0.17 0,-0.25 0,0 0,-0.1 0,-0.14 0,0 0,-0.1 0,-0.13 0,0 0,-0.1 0,0 -0.1,0.1 -0.1,0.18 -0.16,0.26 -0.15,0.14 -0.32,0.27 -0.52,0.34 -0.15,0 -0.3,0.1 -0.45,0.1 -0.11,0 0,0 0.1,0 0,0 0.1,0 0.11,0 0.1,0 0.1,0 0.12,0 0,0 0.1,0 0.12,0 0.1,0 0.1,0 0.14,0 0.1,0 0.1,0 0.15,0 0.1,0 0.11,0 0.16,0 0.1,0 0.13,0 0.18,0 0.1,0 0.13,0 0.2,0 0.1,0 0.14,0 0.21,0 0.1,0 0.15,0 0.22,0 0.1,0 0.17,0 0.25,0 0.1,0 0.16,0 0.24,0 0.1,0 0.17,0 0.25,0 0.1,0 0.19,0 0.28,0 0.1,0 0.17,0 0.25,0 0.1,0 0.18,0 0.27,0 0.1,0 0.21,0 0.31,0 0.11,0 0.21,0 0.31,0 0.11,0 0.21,0 0.32,0 0.11,0 0.23,0 0.34,0 0.12,0 0.24,0 0.36,0 0.12,0 0.25,0 0.37,0 0.13,0 0.27,0 0.4,0 0.15,0 0.31,0 0.46,0 0.12,0 0.25,0 0.38,0 0.11,0 0.22,0 0.32,0 0.13,0 0.26,0 0.38,0 0.13,0 0.25,0 0.38,0 0.1,0 0.2,0 0.29,0 0.1,0 0.18,0 0.27,0 0,0 -0.1,-2.61 -0.1,-2.61 z"
       id="path6936"
       style="color:#000000;display:inline;overflow:visible;visibility:visible;fill:#0169c9;fill-opacity:1;fill-rule:nonzero;stroke:#636466;stroke-width:0.138454;stroke-linecap:butt;stroke-linejoin:round;stroke-miterlimit:4;stroke-dasharray:none;stroke-dashoffset:0;stroke-opacity:1;marker:none;enable-background:accumulate" />
    <path
       inkscape:connector-curvature="0"
       style="color:#000000;display:inline;overflow:visible;visibility:visible;fill:#0169c9;fill-opacity:1;fill-rule:nonzero;stroke:#636466;stroke-width:0.138454;stroke-linecap:butt;stroke-linejoin:round;stroke-miterlimit:4;stroke-dasharray:none;stroke-dashoffset:0;stroke-opacity:1;marker:none;enable-background:accumulate"
       id="path6938"
       d="m -2053.4,1988.67 c 0.1,0 0.16,0 0.25,0 0.1,0 0.16,0 0.25,0 0.1,0 0.17,0 0.26,0 0.13,0 0.25,0 0.37,0 0.15,0 0.31,0 0.47,0 0.14,0 0.29,0 0.44,0 0.11,0 0.23,0 0.35,0 0.13,0 0.25,0 0.38,0 0.13,0 0.25,0 0.37,0 0.12,0 0.24,0 0.36,0 0.12,0 0.23,0 0.34,0 0.11,0 0.22,0 0.32,0 0.1,0 0.19,0 0.28,0 0.1,0 0.19,0 0.28,0 0.1,0 0.18,0 0.28,0 0.1,0 0.16,0 0.25,0 0.1,0 0.14,0 0.22,0 0.1,0 0.17,0 0.25,0 0.1,0 0.17,0 0.26,0 0.1,0 0.16,0 0.24,0 0.1,0 0.16,0 0.23,0 0.1,0 0.14,0 0.21,0 0.1,0 0.13,0 0.2,0 0.1,0 0.11,0 0.17,0 0.1,0 0.11,0 0.16,0 0.1,0 0.11,0 0.16,0 0,0 0.1,0 0.14,0 0.1,0 0.1,0 0.12,0 0,0 0.1,0 0.12,0 0.1,0 0.1,0 0.11,0 0,0 0.11,0 0.16,0 0.22,0 0.43,0 0.63,0.11 0.27,0.1 0.5,0.27 0.68,0.47 0.13,0.16 0.23,0.33 0.29,0.52 0,0.11 0.1,0.22 0.1,0.33 0,0.1 0,0.2 0,0.29 0,0.11 0,0.22 0.1,0.33 0,0.1 0,0.18 0,0.28 0,0.1 0,0.19 0,0.29 0,0.1 0,0.2 0,0.31 0,0.11 0,0.22 0,0.33 0,0.12 0,0.24 0,0.36 0,0.12 0,0.25 0,0.37 0,0.14 0,0.28 0,0.42 0,0.15 0,0.3 0,0.44 0,0.15 0,0.31 -0.1,0.46 0,0.16 0,0.32 0,0.48 0,0.16 0,0.34 0,0.5 0,0.17 0,0.35 0,0.53 0,0.17 0,0.34 0,0.51 0,0.18 -0.1,0.36 -0.1,0.53 0,0.19 0,0.37 0,0.55 0,0.2 0,0.39 0,0.59 0,0.2 0,0.41 0,0.62 0,0.22 0,0.43 0,0.66 0,0.22 0,0.46 -0.1,0.69 0,0.25 0,0.49 0,0.75 0,0.26 0,0.53 0,0.8 0,0.28 0,0.57 0,0.86 0,0.3 0,0.6 0,0.91 0,0.31 0,0.62 0,0.94 0,0.31 0,0.63 0,0.94 0,0.32 0,0.63 0,0.95 0,0.32 0,0.63 0,0.95 0,0.32 0,0.64 0,0.95 0,0.33 0,0.64 0,0.96 0,0.32 0,0.65 0,0.96 0,0.33 0,0.66 0,0.98 0,0.33 0,0.66 0,0.99 0,0.33 0,0.66 0,1 0,0.33 0,0.67 0,1.01 0,0.33 0,0.67 0,1.01 0,0.34 0,0.68 0,1.02 0,0.34 0,0.68 0.1,1.02 0,0.32 0,0.65 0,0.98 0,0.32 0,0.63 0,0.95 0,0.32 0,0.62 0,0.94 0,0.31 0,0.61 0,0.92 0,0.31 0,0.62 0.1,0.92 0,0.31 0,0.62 0,0.93 0,0.31 0,0.61 0,0.92 0,0.3 0,0.6 0,0.9 0,0.31 0,0.61 0,0.92 0,0.3 0,0.61 0.1,0.91 0,0.31 0,0.61 0,0.91 0,0.31 0,0.6 0,0.91 0,0.3 0,0.59 0,0.9 0,0.29 0,0.58 0,0.87 0,0.3 0,0.59 0,0.88 0,0.3 0,0.59 0,0.89 0,0.29 0,0.59 0,0.88 0,0.31 0,0.6 0,0.9 0,0.3 0,0.6 0,0.9 0,0.29 0,0.59 0,0.89 0,0.31 0,0.61 0,0.92 0,0.3 0,0.61 0,0.93 0,0.31 0,0.62 0,0.93 0,0.32 0,0.63 0,0.95 0,0.33 0,0.65 0,0.97 0,0.32 0,0.65 0,0.96 0,0.32 0,0.64 0,0.95 0,0.31 0,0.62 0,0.92 0,0.31 0,0.62 0,0.93 0,0.31 0,0.61 0,0.92 0,0.3 0,0.61 0,0.92 0,0.31 0,0.62 0,0.94 0,0.31 0,0.62 0,0.94 0,0.31 0,0.63 0,0.95 0,0.31 0,0.62 0,0.93 0,0.31 0,0.61 0,0.92 0,0.3 0,0.61 0,0.92 0,0.29 0,0.6 0,0.9 0,0.3 0,0.61 0,0.91 0,0.3 0,0.6 0,0.9 0,0.29 0,0.59 0,0.88 0,0.29 0,0.59 0,0.88 0,0.29 0,0.58 0,0.88 0,0.29 0,0.58 0,0.87 0,0.3 0,0.6 0,0.89 0,0.29 0,0.59 0,0.88 0,0.29 0,0.59 0,0.88 0,0.29 0,0.59 0,0.88 0,0.29 0,0.58 0,0.87 0,0.29 0,0.58 0,0.87 0,0.29 0,0.57 0,0.86 0,0.28 0,0.55 0,0.83 0,0.25 0,0.51 0,0.77 0,0.25 0,0.49 0,0.74 0,0.23 0,0.46 0,0.69 0,0.22 0,0.44 0,0.65 0,0.21 0,0.42 0,0.62 0,0.21 0,0.41 0,0.61 0,0.2 0,0.4 0,0.6 0,0.19 0,0.39 0,0.58 0,0.19 0,0.37 0,0.56 0,0.18 0,0.37 0,0.56 0,0.17 0,0.35 0,0.53 0,0.17 0,0.34 0,0.51 0,0.16 0,0.33 0,0.49 0,0.17 0,0.34 0,0.51 0,0.16 0,0.31 -0.1,0.46 0,0.15 0,0.29 0,0.43 0,0.13 0,0.26 0,0.39 0,0.14 0,0.28 0,0.41 0,0.13 0,0.26 0,0.38 0,0.13 0,0.25 0,0.37 0,0.12 0,0.24 0,0.36 0,0.12 0,0.23 0,0.34 0,0.11 0,0.22 0,0.33 0,0.11 0,0.21 0,0.32 0,0.1 0,0.19 0,0.29 0,0.1 0,0.19 0,0.28 0,0.1 0,0.16 0,0.25 0,0.1 0,0.16 0,0.23 0,0.1 0,0.14 0,0.21 0,0.1 0,0.14 0,0.2 0,0.1 0,0.12 0,0.18 0,0.1 0,0.11 0,0.17 0,0.1 0,0.1 0,0.16 0,0.1 0,0.1 0,0.14 0,0 0,0.1 0,0.13 0,0.1 0,0.1 0,0.12 0,0 0,0.1 0,0.11 0,0.1 0,0.1 0,0.1 0,0.1 0,0.11 0,0.17 0,0.1 -0.1,0.2 -0.1,0.31 0,0.16 -0.13,0.31 -0.24,0.45 -0.1,0.11 -0.17,0.19 -0.28,0.28 -0.11,0.1 -0.25,0.17 -0.4,0.23 -0.11,0.1 -0.23,0.1 -0.35,0.13 -0.1,0 -0.15,0.1 -0.22,0.1 -0.1,0 -0.16,0 -0.24,0 -0.1,0 -0.13,0 -0.19,0 -0.1,0 -0.15,0 -0.22,0 -0.1,0 -0.16,0 -0.23,0 -0.1,0 -0.13,0 -0.2,0 -0.1,0 -0.16,0 -0.24,0 -0.1,0 -0.16,0 -0.24,0 -0.1,0 -0.18,0 -0.26,0 -0.1,0 -0.16,0 -0.24,0 -0.1,0 -0.15,0 -0.22,0 -0.1,0 -0.12,0 -0.17,0 -0.1,0 -0.16,0 -0.24,0 -0.1,0 -0.15,0 -0.23,0 -0.1,0 -0.16,0 -0.24,0 -0.1,0 -0.14,0 -0.21,0 -0.1,0 -0.14,0 -0.21,0 -0.1,0 -0.13,0 -0.2,0 -0.1,0 -0.13,0 -0.2,0 -0.1,0 -0.14,0 -0.21,0 -0.1,0 -0.17,0 -0.25,0 -0.1,0 -0.17,0 -0.25,0 -0.1,0 -0.16,0 -0.23,0 -0.1,0 -0.19,0 -0.28,0 -0.1,0 -0.2,0 -0.29,0 -0.1,0 -0.17,0 -0.25,0 -0.1,0 -0.16,0 -0.23,0 -0.1,0 -0.15,0 -0.24,0 -0.1,0 -0.16,0 -0.24,0 -0.1,0 -0.15,0 -0.23,0 -0.1,0 -0.14,0 -0.21,0 -0.1,0 -0.14,0 -0.21,0 -0.1,0 -0.15,0 -0.22,0 -0.1,0 -0.13,0 -0.2,0 -0.1,0 -0.12,0 -0.18,0 -0.1,0 -0.12,0 -0.17,0 -0.1,0 -0.11,0 -0.17,0 -0.1,0 -0.12,0 -0.18,0 -0.1,0 -0.12,0 -0.18,0 0,0 -0.11,0 -0.16,0 -0.1,0 -0.1,0 -0.15,0 0,0 -0.1,0 -0.14,0 -0.1,0 -0.1,0 0,0 0,0 -0.39,-2.59 -0.39,-2.59 v 0 c 0.1,0 0.17,0 0.26,0 0.1,0 0.1,0 0.14,0 0.1,0 0.1,0 0.15,0 0.1,0 0.1,0 0.16,0 0.1,0 0.12,0 0.18,0 0.1,0 0.13,0 0.19,0 0.1,0 0.17,0 0.25,0 0.1,0 0.15,0 0.22,0 0.1,0 0.15,0 0.23,0 0.1,0 0.14,0 0.21,0 0.1,0 0.15,0 0.22,0 0.1,0 0.14,0 0.21,0 0.1,0 0.15,0 0.22,0 0.1,0 0.16,0 0.23,0 0.1,0 0.17,0 0.26,0 0.1,0 0.16,0 0.24,0 0.1,0 0.16,0 0.24,0 0.1,0 0.16,0 0.24,0 0.1,0 0.15,0 0.23,0 0.1,0 0.13,0 0.2,0 0.1,0 0.15,0 0.23,0 0.1,0 0.13,0 0.2,0 0.1,0 0.12,0 0.19,0 0.1,0 0.12,0 0.18,0 0.1,0 0.13,0 0.19,0 0.1,0 0.13,0 0.2,0 0.1,0 0.13,0 0.19,0 0.1,0 0.15,0 0.22,0 0.1,0 0.14,0 0.22,0 0.1,0 0.14,0 0.21,0 0.1,0 0.14,0 0.21,0 0.1,0 0.17,0 0.25,0 0.1,0 0.15,0 0.22,0 0.1,0 0.16,0 0.24,0 0.1,0 0.15,0 0.23,0 0.1,0 0.15,0 0.23,0 0.1,0 0.14,0 0.22,0 0.1,0 0.17,0 0.25,0 0.1,0 0.13,0 0.19,0 0,0 0.1,0 0.15,0 0.1,0 0.1,0 0.13,0 0.1,0 0,0 0,0 0,0 0,0 0,0 0,0 -0.1,0 -0.15,0 -0.1,0.1 -0.17,0.1 -0.24,0.15 -0.1,0.1 -0.12,0.11 -0.16,0.17 -0.1,0.1 -0.14,0.2 -0.18,0.32 0,0.1 0,0.1 0,0.15 0,0 0,0.1 0,0 0,0 0,-0.1 0,-0.1 0,-0.1 0,-0.1 0,-0.11 0,0 0,-0.1 0,-0.13 0,-0.1 0,-0.1 0,-0.13 0,-0.1 0,-0.1 0,-0.14 0,-0.1 0,-0.1 0,-0.15 0,-0.1 0,-0.11 0,-0.17 0,-0.1 0,-0.12 0,-0.18 0,-0.1 0,-0.13 0,-0.2 0,-0.1 0,-0.14 0,-0.21 0,-0.1 0,-0.16 0,-0.23 0,-0.1 0,-0.17 0,-0.25 0,-0.1 0,-0.19 0,-0.28 0,-0.1 0,-0.2 0,-0.3 0,-0.1 0,-0.21 0,-0.32 0,-0.11 0,-0.22 0,-0.33 0,-0.12 0,-0.24 0,-0.35 0,-0.12 0,-0.24 0,-0.37 0,-0.12 0,-0.25 0,-0.37 0,-0.14 0,-0.26 0,-0.39 0,-0.13 0,-0.26 0,-0.38 0,-0.13 0,-0.27 0,-0.4 0,-0.14 0,-0.29 0,-0.43 0,-0.15 0,-0.31 0.1,-0.46 0,-0.15 0,-0.3 0,-0.45 0,-0.15 0,-0.3 0,-0.46 0,-0.16 0,-0.32 0,-0.48 0,-0.18 0,-0.36 0,-0.54 0,-0.18 0,-0.35 0,-0.53 0,-0.19 0,-0.37 0,-0.56 0,-0.19 0,-0.38 0,-0.58 0,-0.2 0,-0.4 0,-0.6 0,-0.2 0,-0.4 0,-0.61 0,-0.2 0,-0.41 0,-0.62 0,-0.21 0,-0.43 0,-0.65 0,-0.23 0,-0.46 0,-0.69 0,-0.25 0,-0.49 0,-0.74 0,-0.26 0,-0.52 0,-0.78 0,-0.27 0,-0.55 0,-0.82 0,-0.29 0,-0.57 0,-0.86 0,-0.29 0,-0.58 0,-0.88 0,-0.28 0,-0.58 0,-0.87 0,-0.29 0,-0.59 0,-0.88 0,-0.29 0,-0.59 0,-0.88 0,-0.3 0,-0.59 0,-0.89 0,-0.29 0,-0.59 0,-0.88 0,-0.3 0,-0.59 0,-0.88 0,-0.3 0,-0.6 0,-0.89 0,-0.29 0,-0.59 0,-0.87 0,-0.3 0,-0.6 0,-0.89 0,-0.31 0,-0.61 0,-0.9 0,-0.3 0,-0.61 0,-0.9 0,-0.31 0,-0.61 0,-0.91 0,-0.31 0,-0.62 0,-0.92 0,-0.31 0,-0.62 0,-0.92 0,-0.32 0,-0.63 0,-0.94 0,-0.31 0,-0.63 0,-0.93 0,-0.32 0,-0.64 0,-0.95 0,-0.32 0,-0.63 0,-0.95 0,-0.3 0,-0.61 0,-0.92 0,-0.31 0,-0.62 0,-0.92 0,-0.31 0,-0.61 0,-0.92 0,-0.31 0,-0.62 0,-0.93 0,-0.31 0,-0.63 0,-0.95 0,-0.32 0,-0.64 0,-0.96 0,-0.33 0,-0.65 0,-0.97 0,-0.32 0,-0.63 0,-0.95 0,-0.31 0,-0.62 0,-0.94 0,-0.3 0,-0.6 0,-0.91 0,-0.29 0,-0.59 0,-0.89 0,-0.3 0,-0.59 0,-0.9 0,-0.3 0,-0.59 0,-0.89 0,-0.3 0,-0.59 0,-0.89 0,-0.29 0,-0.58 0,-0.87 0,-0.29 0,-0.57 0,-0.86 0,-0.28 0,-0.57 0,-0.86 0,-0.29 0,-0.58 0,-0.87 0,-0.3 0,-0.6 0,-0.9 0,-0.29 0,-0.6 0,-0.9 0,-0.3 0,-0.6 0,-0.9 0,-0.3 0,-0.61 0,-0.91 0,-0.3 0,-0.61 -0.1,-0.91 0,-0.3 0,-0.61 0,-0.92 0,-0.3 0,-0.6 0,-0.91 0,-0.3 0,-0.61 0,-0.92 0,-0.3 0,-0.61 0,-0.92 0,-0.31 0,-0.62 -0.1,-0.93 0,-0.31 0,-0.62 0,-0.93 0,-0.31 0,-0.63 0,-0.95 0,-0.33 0,-0.66 0,-0.99 0,-0.34 0,-0.67 0,-1.01 0,-0.34 0,-0.69 -0.1,-1.03 0,-0.34 0,-0.69 0,-1.03 0,-0.35 0,-0.69 0,-1.03 0,-0.34 0,-0.68 0,-1.01 0,-0.34 0,-0.67 0,-1.01 0,-0.33 0,-0.66 0,-0.99 0,-0.32 0,-0.65 0,-0.98 0,-0.32 0,-0.63 0,-0.96 0,-0.32 0,-0.63 0,-0.95 0,-0.32 0,-0.63 0,-0.95 0,-0.32 0,-0.64 0,-0.95 0,-0.32 0,-0.64 0,-0.95 0,-0.32 0,-0.64 0,-0.95 0,-0.31 0,-0.61 0,-0.91 0,-0.3 0,-0.59 0,-0.88 0,-0.28 0,-0.56 0,-0.83 0,-0.25 0,-0.51 0,-0.76 0,-0.24 0,-0.48 0.1,-0.71 0,-0.23 0,-0.45 0,-0.68 0,-0.21 0,-0.43 0,-0.64 0,-0.19 0,-0.39 0,-0.58 0,-0.18 0,-0.36 0,-0.55 0,-0.18 0,-0.36 0.1,-0.54 0,-0.18 0,-0.36 0,-0.53 0,-0.18 0,-0.35 0,-0.51 0,-0.17 0,-0.34 0,-0.5 0,-0.16 0,-0.32 0,-0.47 0,-0.15 0,-0.3 0,-0.45 0,-0.14 0,-0.28 0.1,-0.42 0,-0.13 0,-0.26 0,-0.39 0,-0.12 0,-0.24 0,-0.36 0,-0.1 0,-0.21 0,-0.32 0,-0.1 0,-0.18 0,-0.27 0,-0.1 0,-0.17 0,-0.26 0,-0.1 0,-0.15 0,-0.23 0,-0.1 0,-0.17 0,-0.25 0,0 0,-0.1 0,-0.14 0,0 0,-0.1 0,-0.13 0,0 0,-0.1 0,0 0,0.1 0.1,0.18 0.16,0.26 0.14,0.15 0.31,0.28 0.51,0.35 0.15,0 0.3,0.1 0.45,0.1 0.11,0 0,0 0,0 0,0 -0.1,0 -0.11,0 0,0 -0.1,0 -0.12,0 0,0 -0.1,0 -0.13,0 0,0 -0.1,0 -0.13,0 0,0 -0.1,0 -0.16,0 0,0 -0.11,0 -0.16,0 -0.1,0 -0.12,0 -0.18,0 -0.1,0 -0.13,0 -0.19,0 -0.1,0 -0.14,0 -0.21,0 -0.1,0 -0.15,0 -0.23,0 -0.1,0 -0.16,0 -0.24,0 -0.1,0 -0.17,0 -0.25,0 -0.1,0 -0.16,0 -0.24,0 -0.1,0 -0.19,0 -0.28,0 -0.1,0 -0.17,0 -0.25,0 -0.1,0 -0.18,0 -0.27,0 -0.11,0 -0.21,0 -0.31,0 -0.11,0 -0.21,0 -0.32,0 -0.11,0 -0.21,0 -0.31,0 -0.12,0 -0.23,0 -0.35,0 -0.11,0 -0.23,0 -0.36,0 -0.12,0 -0.24,0 -0.36,0 -0.14,0 -0.27,0 -0.4,0 -0.16,0 -0.31,0 -0.46,0 -0.13,0 -0.26,0 -0.38,0 -0.11,0 -0.22,0 -0.33,0 -0.13,0 -0.25,0 -0.38,0 -0.12,0 -0.25,0 -0.38,0 -0.1,0 -0.19,0 -0.28,0 -0.1,0 -0.19,0 -0.28,0 0,0 0.1,-2.61 0.1,-2.61 z" />
    <text
       xml:space="preserve"
       style="color:#000000;font-style:normal;font-variant:normal;font-weight:900;font-stretch:normal;font-size:24px;line-height:0%;font-family:'Trebuchet MS';-inkscape-font-specification:'Trebuchet MS';text-indent:0;text-align:start;text-decoration:none;text-decoration-line:none;letter-spacing:normal;word-spacing:normal;text-transform:none;writing-mode:lr-tb;direction:ltr;text-anchor:start;display:inline;overflow:visible;visibility:visible;fill:#009100;fill-opacity:1;fill-rule:nonzero;stroke:none;stroke-width:0.556118;marker:none;enable-background:accumulate"
       x="-2071.92"
       y="2071.31"
       id="text6944"><tspan
         sodipodi:role="line"
         id="tspan6946"
         x="-2071.92"
         y="2071.31"
         style="font-size:24px;line-height:1;fill:#009100;fill-opacity:1;stroke-width:0.556118">i</tspan></text>
    <text
       xml:space="preserve"
       style="color:#000000;font-style:normal;font-variant:normal;font-weight:900;font-stretch:normal;font-size:24px;line-height:0%;font-family:'Trebuchet MS';-inkscape-font-specification:'Trebuchet MS';text-indent:0;text-align:start;text-decoration:none;text-decoration-line:none;letter-spacing:normal;word-spacing:normal;text-transform:none;writing-mode:lr-tb;direction:ltr;text-anchor:start;display:inline;overflow:visible;visibility:visible;fill:#009100;fill-opacity:1;fill-rule:nonzero;stroke:none;stroke-width:0.556118;marker:none;enable-background:accumulate"
       x="-2073.99"
       y="2039.82"
       id="text6948"><tspan
         sodipodi:role="line"
         id="tspan6950"
         x="-2073.99"
         y="2039.82"
         style="font-size:24px;line-height:1;fill:#009100;fill-opacity:1;stroke-width:0.556118">f</tspan></text>
    <path
       inkscape:connector-curvature="0"
       id="path6952"
       d="m -2132.16,2034.55 62.59,28.03"
       style="color:#000000;display:inline;overflow:visible;visibility:visible;fill:#0197fd;stroke:#0197fd;stroke-width:1.88709;stroke-miterlimit:4;stroke-dasharray:none;marker:none;marker-start:url(#Arrow1MstartH);marker-end:url(#Arrow1Mendj);enable-background:accumulate" />
    <path
       inkscape:connector-curvature="0"
       style="color:#000000;display:inline;overflow:visible;visibility:visible;fill:none;stroke:#f44800;stroke-width:1.88709;stroke-miterlimit:4;stroke-dasharray:none;marker:none;marker-start:url(#Arrow1MstartV);marker-end:url(#Arrow1MendM);enable-background:accumulate"
       d="m -2069.02,2036.64 -64.84,25.39"
       id="path6954" />
    <text
       id="text6966"
       y="2039.82"
       x="-1996.77"
       style="color:#000000;font-style:normal;font-variant:normal;font-weight:900;font-stretch:normal;font-size:24px;line-height:0%;font-family:'Trebuchet MS';-inkscape-font-specification:'Trebuchet MS';text-indent:0;text-align:start;text-decoration:none;text-decoration-line:none;letter-spacing:normal;word-spacing:normal;text-transform:none;writing-mode:lr-tb;direction:ltr;text-anchor:start;display:inline;overflow:visible;visibility:visible;fill:#009100;fill-opacity:1;fill-rule:nonzero;stroke:none;stroke-width:0.556118;marker:none;enable-background:accumulate"
       xml:space="preserve"><tspan
         y="2039.82"
         x="-1996.77"
         id="tspan6968"
         sodipodi:role="line"
         style="font-size:24px;line-height:1;fill:#009100;fill-opacity:1;stroke-width:0.556118">d</tspan></text>
    <text
       id="text6970"
       y="2071.31"
       x="-1962.21"
       style="color:#000000;font-style:normal;font-variant:normal;font-weight:900;font-stretch:normal;font-size:24px;line-height:0%;font-family:'Trebuchet MS';-inkscape-font-specification:'Trebuchet MS';text-indent:0;text-align:start;text-decoration:none;text-decoration-line:none;letter-spacing:normal;word-spacing:normal;text-transform:none;writing-mode:lr-tb;direction:ltr;text-anchor:start;display:inline;overflow:visible;visibility:visible;fill:#009100;fill-opacity:1;fill-rule:nonzero;stroke:none;stroke-width:0.556118;marker:none;enable-background:accumulate"
       xml:space="preserve"><tspan
         y="2071.31"
         x="-1962.21"
         id="tspan6972"
         sodipodi:role="line"
         style="font-size:24px;line-height:1;fill:#009100;fill-opacity:1;stroke-width:0.556118">h</tspan></text>
    <text
       id="text6974"
       y="2071.31"
       x="-1996.2"
       style="color:#000000;font-style:normal;font-variant:normal;font-weight:900;font-stretch:normal;font-size:24px;line-height:0%;font-family:'Trebuchet MS';-inkscape-font-specification:'Trebuchet MS';text-indent:0;text-align:start;text-decoration:none;text-decoration-line:none;letter-spacing:normal;word-spacing:normal;text-transform:none;writing-mode:lr-tb;direction:ltr;text-anchor:start;display:inline;overflow:visible;visibility:visible;fill:#009100;fill-opacity:1;fill-rule:nonzero;stroke:none;stroke-width:0.556118;marker:none;enable-background:accumulate"
       xml:space="preserve"><tspan
         y="2071.31"
         x="-1996.2"
         id="tspan6976"
         sodipodi:role="line"
         style="font-size:24px;line-height:1;fill:#009100;fill-opacity:1;stroke-width:0.556118">g</tspan></text>
    <text
       id="text6978"
       y="2039.82"
       x="-1961.65"
       style="color:#000000;font-style:normal;font-variant:normal;font-weight:900;font-stretch:normal;font-size:24px;line-height:0%;font-family:'Trebuchet MS';-inkscape-font-specification:'Trebuchet MS';text-indent:0;text-align:start;text-decoration:none;text-decoration-line:none;letter-spacing:normal;word-spacing:normal;text-transform:none;writing-mode:lr-tb;direction:ltr;text-anchor:start;display:inline;overflow:visible;visibility:visible;fill:#009100;fill-opacity:1;fill-rule:nonzero;stroke:none;stroke-width:0.556118;marker:none;enable-background:accumulate"
       xml:space="preserve"><tspan
         y="2039.82"
         x="-1961.65"
         id="tspan6980"
         sodipodi:role="line"
         style="font-size:24px;line-height:1;fill:#009100;fill-opacity:1;stroke-width:0.556118">e</tspan></text>
    <path
       inkscape:connector-curvature="0"
       style="color:#000000;display:inline;overflow:visible;visibility:visible;fill:#0169c9;fill-opacity:1;fill-rule:nonzero;stroke:#636466;stroke-width:0.138454;stroke-linecap:butt;stroke-linejoin:round;stroke-miterlimit:4;stroke-dasharray:none;stroke-dashoffset:0;stroke-opacity:1;marker:none;enable-background:accumulate"
       id="path6982"
       d="m -2004.67,1988.71 c -0.1,0 -0.16,0 -0.25,0 -0.1,0 -0.16,0 -0.25,0 -0.1,0 -0.17,0 -0.26,0 -0.12,0 -0.24,0 -0.36,0 -0.16,0 -0.32,0 -0.48,0 -0.14,0 -0.29,0 -0.43,0 -0.12,0 -0.24,0 -0.36,0 -0.12,0 -0.25,0 -0.38,0 -0.12,0 -0.24,0 -0.37,0 -0.12,0 -0.24,0 -0.36,0 -0.12,0 -0.23,0 -0.34,0 -0.11,0 -0.21,0 -0.32,0 -0.1,0 -0.19,0 -0.29,0 -0.1,0 -0.18,0 -0.27,0 -0.1,0 -0.18,0 -0.27,0 -0.1,0 -0.17,0 -0.25,0 -0.1,0 -0.15,0 -0.23,0 -0.1,0 -0.16,0 -0.25,0 -0.1,0 -0.17,0 -0.25,0 -0.1,0 -0.17,0 -0.25,0 -0.1,0 -0.15,0 -0.23,0 -0.1,0 -0.14,0 -0.21,0 -0.1,0 -0.13,0 -0.19,0 -0.1,0 -0.12,0 -0.18,0 -0.1,0 -0.11,0 -0.17,0 0,0 -0.1,0 -0.14,0 0,0 -0.1,0 -0.14,0 0,0 -0.1,0 -0.13,0 0,0 -0.1,0 -0.12,0 0,0 -0.1,0 -0.11,0 0,0 -0.1,0 -0.16,0 -0.22,0 -0.42,0 -0.63,0.1 -0.27,0.1 -0.5,0.27 -0.68,0.48 -0.14,0.15 -0.23,0.32 -0.3,0.5 0,0.11 -0.1,0.22 -0.1,0.34 0,0.1 0,0.19 0,0.28 0,0.11 0,0.22 -0.1,0.34 0,0.1 0,0.18 0,0.27 0,0.1 0,0.2 0,0.29 0,0.1 0,0.2 0,0.31 0,0.11 0,0.22 0,0.33 0,0.12 0,0.24 0,0.36 0,0.12 0,0.25 0,0.37 0,0.14 0,0.28 0,0.42 0,0.15 0,0.3 0,0.45 0,0.15 0,0.3 0,0.45 0,0.16 0,0.32 0,0.48 0,0.17 0,0.34 0.1,0.51 0,0.17 0,0.35 0,0.52 0,0.18 0,0.35 0,0.52 0,0.18 0,0.35 0,0.53 0,0.18 0,0.36 0,0.55 0,0.19 0,0.39 0.1,0.58 0,0.21 0,0.42 0,0.62 0,0.22 0,0.44 0.1,0.66 0,0.23 0,0.46 0,0.69 0,0.25 0,0.5 0,0.75 0,0.27 0,0.54 0,0.81 0,0.28 0,0.57 0,0.85 0,0.3 0,0.61 0,0.92 0,0.31 0,0.62 0,0.94 0,0.31 0,0.63 0,0.94 0,0.31 0,0.63 0,0.95 0,0.32 0,0.63 0,0.95 0,0.32 0,0.63 0,0.95 0,0.32 0,0.64 0,0.96 0,0.32 0,0.64 0,0.96 0,0.33 0,0.65 0,0.97 0,0.33 0,0.66 0,0.99 0,0.33 0,0.67 0,1 0,0.34 0,0.67 -0.1,1.01 0,0.34 0,0.68 0,1.01 0,0.35 -0.1,0.69 -0.1,1.03 0,0.33 0,0.68 0,1.02 0,0.32 0,0.65 0,0.98 0,0.32 0,0.63 0,0.95 0,0.31 0,0.62 0,0.93 0,0.31 0,0.62 -0.1,0.93 0,0.31 0,0.61 0,0.92 0,0.31 0,0.61 0,0.92 0,0.31 0,0.62 0,0.92 0,0.3 0,0.61 0,0.91 0,0.3 -0.1,0.61 -0.1,0.91 0,0.31 0,0.61 0,0.92 0,0.3 0,0.61 0,0.91 0,0.3 0,0.6 0,0.9 0,0.3 0,0.6 0,0.9 0,0.29 0,0.58 -0.1,0.88 0,0.29 0,0.58 0,0.87 0,0.3 0,0.59 0,0.89 0,0.29 0,0.59 0,0.89 0,0.3 0,0.59 0,0.89 0,0.3 0,0.6 0,0.9 0,0.3 0,0.59 0,0.89 0,0.31 0,0.61 0,0.92 0,0.31 0,0.62 0,0.93 0,0.31 0,0.62 0,0.93 0,0.32 0,0.63 0,0.95 0,0.33 0,0.65 0,0.97 0,0.32 0,0.65 0,0.96 0,0.32 0,0.64 0,0.95 0,0.31 0,0.62 0,0.93 0,0.31 0,0.62 0,0.92 0,0.31 0,0.62 0,0.92 0,0.31 0,0.62 0,0.93 0,0.3 0,0.62 0,0.93 0,0.31 0,0.63 0,0.94 0,0.32 0,0.63 0,0.95 0,0.31 0,0.62 0,0.94 0,0.3 0,0.61 0,0.92 0,0.3 0,0.6 0,0.91 0,0.3 0,0.6 0,0.9 0,0.3 0,0.61 0,0.91 0,0.3 0,0.6 0,0.9 0,0.29 0,0.59 0,0.89 0,0.29 0,0.58 0,0.87 0,0.29 0,0.59 0,0.88 0,0.29 0,0.59 0,0.88 0,0.29 0,0.59 0,0.88 0,0.29 0,0.59 0,0.88 0,0.3 0,0.59 0,0.89 0,0.29 0,0.58 0,0.87 0,0.29 0,0.59 0,0.87 0,0.3 0,0.58 0,0.88 0,0.29 0,0.57 0,0.86 0,0.27 0,0.54 0,0.82 0,0.26 0,0.52 0,0.78 0,0.24 0,0.49 0,0.73 0,0.23 0,0.46 0,0.7 0,0.21 0,0.43 0,0.65 0,0.21 0,0.41 0,0.62 0,0.2 0,0.4 0,0.61 0,0.19 0,0.4 0,0.59 0,0.2 0,0.39 0,0.58 0,0.19 0,0.37 0,0.56 0,0.19 0,0.37 0,0.56 0,0.18 0,0.36 0,0.53 0,0.17 0,0.34 0,0.51 0,0.16 0,0.33 0,0.49 0,0.18 0,0.35 0.1,0.51 0,0.16 0,0.31 0,0.47 0,0.14 0,0.28 0,0.42 0,0.14 0,0.27 0,0.4 0,0.13 0,0.27 0,0.41 0,0.12 0,0.25 0,0.38 0,0.12 0,0.24 0,0.37 0,0.12 0,0.24 0,0.36 0,0.11 0,0.22 0,0.34 0,0.11 0,0.22 0,0.33 0,0.1 0,0.21 0,0.31 0,0.1 0,0.2 0,0.3 0,0.1 0,0.18 0,0.28 0,0.1 0,0.16 0,0.24 0,0.1 0,0.16 0,0.24 0,0.1 0,0.14 0,0.21 0,0.1 0,0.14 0,0.2 0,0.1 0,0.12 0,0.18 0,0.1 0,0.12 0,0.17 0,0.1 0,0.1 0,0.15 0,0.1 0,0.1 0,0.14 0,0 0,0.1 0,0.14 0,0 0,0.1 0,0.12 0,0.1 0,0.1 0,0.1 0,0.1 0,0.1 0,0.11 0,0.1 0,0.11 0,0.17 0,0.1 0,0.2 0.1,0.3 0,0.17 0.14,0.32 0.24,0.46 0.1,0.11 0.18,0.2 0.28,0.28 0.11,0.1 0.25,0.17 0.39,0.25 0.12,0.1 0.23,0.1 0.36,0.12 0.1,0 0.14,0.1 0.21,0.1 0.1,0 0.17,0 0.25,0 0.1,0 0.13,0 0.19,0 0.1,0 0.14,0 0.22,0 0.1,0 0.15,0 0.23,0 0.1,0 0.13,0 0.2,0 0.1,0 0.15,0 0.23,0 0.1,0 0.17,0 0.25,0 0.1,0 0.17,0 0.26,0 0.1,0 0.16,0 0.24,0 0.1,0 0.14,0 0.21,0 0.1,0 0.12,0 0.18,0 0.1,0 0.15,0 0.23,0 0.1,0 0.16,0 0.24,0 0.1,0 0.15,0 0.23,0 0.1,0 0.14,0 0.22,0 0.1,0 0.13,0 0.2,0 0.1,0 0.14,0 0.2,0 0.1,0 0.14,0 0.2,0 0.1,0 0.14,0 0.21,0 0.1,0 0.17,0 0.25,0 0.1,0 0.17,0 0.25,0 0.1,0 0.16,0 0.24,0 0.1,0 0.18,0 0.28,0 0.1,0 0.19,0 0.28,0 0.1,0 0.17,0 0.25,0 0.1,0 0.16,0 0.23,0 0.1,0 0.16,0 0.24,0 0.1,0 0.16,0 0.24,0 0.1,0 0.16,0 0.23,0 0.1,0 0.14,0 0.22,0 0.1,0 0.14,0 0.21,0 0.1,0 0.14,0 0.21,0 0.1,0 0.14,0 0.21,0 0.1,0 0.11,0 0.17,0 0.1,0 0.12,0 0.18,0 0,0 0.1,0 0.16,0 0.1,0 0.12,0 0.19,0 0,0 0.11,0 0.17,0 0.1,0 0.11,0 0.17,0 0.1,0 0.1,0 0.14,0 0,0 0.1,0 0.14,0 0.1,0 0.1,0 0,0 0,0 0.42,-2.59 0.42,-2.59 v 0 c -0.1,0 -0.17,0 -0.26,-0.1 0,0 -0.1,0 -0.14,0 -0.1,0 -0.1,0 -0.15,0 0,0 -0.11,0 -0.16,0 -0.1,0 -0.12,0 -0.17,0 -0.1,0 -0.14,0 -0.2,0 -0.1,0 -0.16,0 -0.25,0 -0.1,0 -0.15,0 -0.22,0 -0.1,0 -0.15,0 -0.22,0 -0.1,0 -0.15,0 -0.22,0 -0.1,0 -0.14,0 -0.21,0 -0.1,0 -0.15,0 -0.23,0 -0.1,0 -0.14,0 -0.21,0 -0.1,0 -0.16,0 -0.24,0 -0.1,0 -0.16,0 -0.24,0 -0.1,0 -0.17,0 -0.25,0 -0.1,0 -0.16,0 -0.24,0 -0.1,0 -0.16,0 -0.25,0 -0.1,0 -0.14,0 -0.21,0 -0.1,0 -0.14,0 -0.21,0 -0.1,0 -0.15,0 -0.23,0 -0.1,0 -0.14,0 -0.2,0 -0.1,0 -0.13,0 -0.19,0 -0.1,0 -0.13,0 -0.19,0 -0.1,0 -0.12,0 -0.18,0 -0.1,0 -0.13,0 -0.19,0 -0.1,0 -0.14,0 -0.2,0 -0.1,0 -0.14,0 -0.21,0 -0.1,0 -0.16,0 -0.23,0 -0.1,0 -0.14,0 -0.21,0 -0.1,0 -0.14,0 -0.21,0 -0.1,0 -0.17,0 -0.25,0 -0.1,0 -0.15,0 -0.22,0 -0.1,0 -0.16,0 -0.23,0 -0.1,0 -0.17,0 -0.24,0 -0.1,0 -0.15,0 -0.22,0 -0.1,0 -0.15,0 -0.23,0 -0.1,0 -0.16,0 -0.25,0 -0.1,0 -0.13,0 -0.19,0 0,0 -0.1,0 -0.15,0 0,0 -0.1,0 -0.12,0 -0.1,0 0,0 -0.1,0 0,0 0,0 0,0 0,0 0.11,0.1 0.15,0.1 0.1,0.1 0.17,0.1 0.24,0.15 0.1,0.1 0.11,0.11 0.16,0.17 0.1,0.1 0.14,0.2 0.17,0.32 0,0.1 0,0.1 0,0.15 0,0 0,0.1 0,0 0,0 0,-0.1 0,-0.1 0,-0.1 0,-0.1 0,-0.11 0,0 0,-0.1 0,-0.12 0,0 0,-0.1 0,-0.13 0,0 0,-0.1 0,-0.14 0,-0.1 0,-0.1 0,-0.16 0,-0.1 0,-0.11 0,-0.17 0,-0.1 0,-0.12 0,-0.18 0,-0.1 0,-0.13 0,-0.19 0,-0.1 0,-0.15 0,-0.22 0,-0.1 0,-0.15 0,-0.23 0,-0.1 0,-0.17 0,-0.25 0,-0.1 0,-0.19 0,-0.28 0,-0.1 0,-0.19 0,-0.3 0,-0.1 0,-0.21 0,-0.31 0,-0.12 0,-0.23 0,-0.34 0,-0.12 0,-0.24 0,-0.35 0,-0.12 0,-0.24 0,-0.37 0,-0.12 0,-0.25 0,-0.37 0,-0.13 0,-0.26 0,-0.39 0,-0.13 0,-0.26 0,-0.38 0,-0.13 0,-0.27 0,-0.4 0,-0.14 0,-0.29 0,-0.43 0,-0.15 0,-0.31 0,-0.46 0,-0.15 0,-0.3 0,-0.45 0,-0.15 0,-0.31 0,-0.46 0,-0.16 0,-0.32 0,-0.49 0,-0.17 0,-0.35 0,-0.53 0,-0.18 0,-0.35 0,-0.53 0,-0.19 0,-0.37 0,-0.56 0,-0.19 0,-0.38 0,-0.58 0,-0.2 0,-0.4 0,-0.6 0,-0.2 0,-0.4 0,-0.61 0,-0.2 0,-0.41 0,-0.62 0,-0.21 0,-0.43 0,-0.65 0,-0.23 0,-0.46 0,-0.7 0,-0.24 0,-0.49 0,-0.73 0,-0.26 0,-0.52 0,-0.78 0,-0.27 0,-0.55 0,-0.82 0,-0.29 0,-0.57 0,-0.86 0,-0.29 0,-0.58 0,-0.88 0,-0.29 0,-0.58 0,-0.87 0,-0.29 0,-0.59 0,-0.88 0,-0.29 0,-0.59 0,-0.89 0,-0.29 0,-0.58 0,-0.88 0,-0.29 0,-0.59 0,-0.88 0,-0.3 0,-0.59 0,-0.89 0,-0.29 0,-0.59 0,-0.88 0,-0.29 0,-0.59 0,-0.88 0,-0.29 0,-0.59 0,-0.89 0,-0.3 0,-0.6 0,-0.89 0,-0.31 0,-0.61 0,-0.9 0,-0.31 0,-0.61 0,-0.91 0,-0.31 0,-0.62 0,-0.92 0,-0.31 0,-0.62 0,-0.92 0,-0.32 0,-0.63 0,-0.94 0,-0.31 0,-0.63 0,-0.94 0,-0.31 0,-0.63 0,-0.94 0,-0.32 0,-0.63 0,-0.95 0,-0.3 0,-0.61 0,-0.93 0,-0.3 0,-0.61 0,-0.92 0,-0.3 0,-0.61 0,-0.91 0,-0.31 0,-0.62 0,-0.93 0,-0.32 0,-0.63 0,-0.95 0,-0.32 0,-0.64 0,-0.97 0,-0.32 0,-0.64 0,-0.96 0,-0.32 0,-0.63 0,-0.95 0,-0.32 0,-0.63 0,-0.94 0,-0.31 0,-0.61 0,-0.91 0,-0.3 0,-0.59 0,-0.89 0,-0.3 0,-0.6 0,-0.9 0,-0.3 0,-0.59 0,-0.89 0,-0.3 0,-0.59 0,-0.89 0,-0.29 0,-0.58 0,-0.87 0,-0.29 0,-0.58 0,-0.86 0,-0.29 0,-0.57 0,-0.86 0,-0.29 0,-0.58 0,-0.88 0,-0.29 0,-0.59 0.1,-0.89 0,-0.3 0,-0.6 0,-0.9 0,-0.3 0,-0.6 0,-0.9 0,-0.31 0,-0.61 0,-0.92 0,-0.3 0,-0.6 0,-0.9 0,-0.3 0,-0.61 0.1,-0.92 0,-0.3 0,-0.6 0,-0.91 0,-0.3 0,-0.61 0,-0.92 0,-0.3 0,-0.61 0,-0.92 0,-0.31 0,-0.62 0,-0.93 0,-0.31 0.1,-0.62 0.1,-0.93 0,-0.31 0,-0.63 0,-0.95 0,-0.33 0,-0.66 0.1,-0.99 0,-0.33 0,-0.67 0,-1.01 0,-0.34 0.1,-0.69 0.1,-1.03 0,-0.34 0,-0.69 0,-1.03 0,-0.34 0,-0.68 0,-1.03 0,-0.34 0,-0.68 0,-1.01 0,-0.34 0,-0.67 0,-1 0,-0.33 0,-0.66 0,-1 0,-0.32 0,-0.65 0,-0.97 0,-0.32 0,-0.64 0,-0.96 0,-0.32 0,-0.64 0,-0.96 0,-0.32 0,-0.63 0,-0.95 0,-0.32 0,-0.64 0,-0.95 0,-0.32 0,-0.64 0,-0.95 0,-0.32 0,-0.63 0,-0.95 0,-0.3 0,-0.61 0,-0.91 0,-0.3 0,-0.59 0,-0.88 0,-0.28 0,-0.55 0,-0.83 0,-0.25 0,-0.5 0,-0.76 0,-0.23 0,-0.47 0,-0.71 0,-0.23 0,-0.45 0,-0.68 0,-0.21 0,-0.42 0,-0.64 0,-0.19 0,-0.39 0,-0.58 0,-0.18 0,-0.36 -0.1,-0.55 0,-0.18 0,-0.36 0,-0.54 0,-0.18 0,-0.36 -0.1,-0.53 0,-0.18 0,-0.35 0,-0.51 0,-0.17 0,-0.34 -0.1,-0.5 0,-0.16 0,-0.32 0,-0.47 0,-0.15 0,-0.3 0,-0.45 0,-0.14 0,-0.28 0,-0.42 0,-0.13 0,-0.26 0,-0.39 0,-0.12 0,-0.24 0,-0.36 0,-0.11 0,-0.21 0,-0.32 0,-0.1 0,-0.18 0,-0.28 0,-0.1 0,-0.17 0,-0.25 0,-0.1 0,-0.15 0,-0.23 0,-0.1 0,-0.17 0,-0.25 0,0 0,-0.1 0,-0.14 0,0 0,-0.1 0,-0.13 0,0 0,-0.1 0,0 0,0.1 -0.1,0.18 -0.16,0.26 -0.15,0.14 -0.32,0.27 -0.52,0.34 -0.15,0 -0.3,0.1 -0.45,0.1 -0.11,0 0,0 0,0 0,0 0.1,0 0.11,0 0,0 0.1,0 0.12,0 0,0 0.1,0 0.13,0 0,0 0.1,0 0.13,0 0,0 0.1,0 0.15,0 0.1,0 0.12,0 0.17,0 0.1,0 0.12,0 0.18,0 0.1,0 0.12,0 0.19,0 0.1,0 0.14,0 0.21,0 0.1,0 0.15,0 0.22,0 0.1,0 0.17,0 0.25,0 0.1,0 0.16,0 0.24,0 0.1,0 0.17,0 0.25,0 0.1,0 0.19,0 0.28,0 0.1,0 0.17,0 0.25,0 0.1,0 0.18,0 0.27,0 0.1,0 0.21,0 0.31,0 0.11,0 0.21,0 0.32,0 0.1,0 0.21,0 0.31,0 0.11,0 0.23,0 0.34,0 0.12,0 0.24,0 0.36,0 0.13,0 0.25,0 0.37,0 0.14,0 0.27,0 0.4,0 0.15,0 0.31,0 0.46,0 0.12,0 0.25,0 0.38,0 0.11,0 0.22,0 0.33,0 0.12,0 0.25,0 0.37,0 0.13,0 0.25,0 0.38,0 0.1,0 0.2,0 0.29,0 0.1,0 0.18,0 0.28,0 0,0 -0.1,-2.61 -0.1,-2.61 z" />
    <path
       inkscape:connector-curvature="0"
       d="m -1906.29,1988.67 c 0.1,0 0.17,0 0.25,0 0.1,0 0.17,0 0.25,0 0.1,0 0.18,0 0.26,0 0.13,0 0.25,0 0.37,0 0.16,0 0.32,0 0.47,0 0.15,0 0.3,0 0.44,0 0.12,0 0.24,0 0.35,0 0.13,0 0.26,0 0.39,0 0.12,0 0.24,0 0.37,0 0.12,0 0.24,0 0.36,0 0.11,0 0.23,0 0.34,0 0.1,0 0.21,0 0.32,0 0.1,0 0.19,0 0.28,0 0.1,0 0.19,0 0.28,0 0.1,0 0.18,0 0.27,0 0.1,0 0.17,0 0.25,0 0.1,0 0.15,0 0.22,0 0.1,0 0.17,0 0.25,0 0.1,0 0.18,0 0.26,0 0.1,0 0.17,0 0.25,0 0.1,0 0.15,0 0.23,0 0.1,0 0.14,0 0.21,0 0.1,0 0.13,0 0.19,0 0.1,0 0.12,0 0.18,0 0.1,0 0.11,0 0.16,0 0,0 0.1,0 0.15,0 0,0 0.1,0 0.14,0 0,0 0.1,0 0.13,0 0,0 0.1,0 0.12,0 0,0 0.1,0 0.11,0 0,0 0.1,0 0.16,0 0.22,0 0.42,0 0.63,0.11 0.27,0.1 0.49,0.27 0.68,0.47 0.13,0.16 0.22,0.33 0.29,0.52 0,0.11 0.1,0.22 0.1,0.33 0,0.1 0,0.2 0,0.29 0,0.11 0,0.22 0,0.33 0,0.1 0,0.18 0,0.28 0,0.1 0,0.19 0,0.29 0,0.1 0,0.2 0,0.31 0,0.11 0,0.22 0,0.33 0,0.12 0,0.24 0,0.36 0,0.12 0,0.25 0,0.37 0,0.14 0,0.28 0,0.42 0,0.15 0,0.3 0,0.44 0,0.15 0,0.31 0,0.46 0,0.16 0,0.32 0,0.48 0,0.16 0,0.34 0,0.5 0,0.17 0,0.35 0,0.53 0,0.17 0,0.34 -0.1,0.51 0,0.18 0,0.36 0,0.53 0,0.19 0,0.37 0,0.55 0,0.2 0,0.39 0,0.59 0,0.2 0,0.41 0,0.62 0,0.22 0,0.43 -0.1,0.66 0,0.22 0,0.46 0,0.69 0,0.25 0,0.49 0,0.75 0,0.26 0,0.53 0,0.8 0,0.28 0,0.57 0,0.86 0,0.3 0,0.6 0,0.91 0,0.31 0,0.62 0,0.94 0,0.31 0,0.63 0,0.94 0,0.32 0,0.63 0,0.95 0,0.32 0,0.63 0,0.95 0,0.32 0,0.64 0,0.95 0,0.33 0,0.64 0,0.96 0,0.32 0,0.65 0,0.96 0,0.33 0,0.66 0,0.98 0,0.33 0,0.66 0,0.99 0,0.33 0,0.66 0,1 0,0.33 0,0.67 0,1.01 0,0.33 0,0.67 0,1.01 0,0.34 0,0.68 0,1.02 0,0.34 0,0.68 0.1,1.02 0,0.32 0,0.65 0,0.98 0,0.32 0,0.63 0,0.95 0,0.32 0,0.62 0,0.94 0,0.31 0,0.61 0,0.92 0,0.31 0,0.62 0.1,0.92 0,0.31 0,0.62 0,0.93 0,0.31 0,0.61 0,0.92 0,0.3 0,0.6 0,0.9 0,0.31 0,0.61 0,0.92 0,0.3 0,0.61 0.1,0.91 0,0.31 0,0.61 0,0.91 0,0.31 0,0.6 0,0.91 0,0.3 0,0.59 0,0.9 0,0.29 0,0.58 0,0.87 0,0.3 0,0.59 0,0.88 0,0.3 0,0.59 0,0.89 0,0.29 0,0.59 0,0.88 0,0.31 0,0.6 0,0.9 0,0.3 0,0.6 0,0.9 0,0.29 0,0.59 0,0.89 0,0.31 0,0.61 0,0.92 0,0.3 0,0.61 0,0.93 0,0.31 0,0.62 0,0.93 0,0.32 0,0.63 0,0.95 0,0.33 0,0.65 0,0.97 0,0.32 0,0.65 0,0.96 0,0.32 0,0.64 0,0.95 0,0.31 0,0.62 0,0.92 0,0.31 0,0.62 0,0.93 0,0.31 0,0.61 0,0.92 0,0.3 0,0.61 0,0.92 0,0.31 0,0.62 0,0.94 0,0.31 0,0.62 0,0.94 0,0.31 0,0.63 0,0.95 0,0.31 0,0.62 0,0.93 0,0.31 0,0.61 0,0.92 0,0.3 0,0.61 0,0.92 0,0.29 0,0.6 0,0.9 0,0.3 0,0.61 0,0.91 0,0.3 0,0.6 0,0.9 0,0.29 0,0.59 0,0.88 0,0.29 0,0.59 0,0.88 0,0.29 0,0.58 0,0.88 0,0.29 0,0.58 0,0.87 0,0.3 0,0.6 0,0.89 0,0.29 0,0.59 0,0.88 0,0.29 0,0.59 0,0.88 0,0.29 0,0.59 0,0.88 0,0.29 0,0.58 0,0.87 0,0.29 0,0.58 0,0.87 0,0.29 0,0.57 0,0.86 0,0.28 0,0.55 0,0.83 0,0.25 0,0.51 0,0.77 0,0.25 0,0.49 0,0.74 0,0.23 0,0.46 0,0.69 0,0.22 0,0.44 0,0.65 0,0.21 0,0.42 0,0.62 0,0.21 0,0.41 0,0.61 0,0.2 0,0.4 0,0.6 0,0.19 0,0.39 0,0.58 0,0.19 0,0.37 0,0.56 0,0.18 0,0.37 0,0.56 0,0.17 0,0.35 0,0.53 0,0.17 0,0.34 0,0.51 0,0.16 0,0.33 0,0.49 0,0.17 0,0.34 0,0.51 0,0.16 0,0.31 0,0.46 0,0.15 0,0.29 -0.1,0.43 0,0.13 0,0.26 0,0.39 0,0.14 0,0.28 0,0.41 0,0.13 0,0.26 0,0.38 0,0.13 0,0.25 0,0.37 0,0.12 0,0.24 0,0.36 0,0.12 0,0.23 0,0.34 0,0.11 0,0.22 0,0.33 0,0.11 0,0.21 0,0.32 0,0.1 0,0.19 0,0.29 0,0.1 0,0.19 0,0.28 0,0.1 0,0.16 0,0.25 0,0.1 0,0.16 0,0.23 0,0.1 0,0.14 0,0.21 0,0.1 0,0.14 0,0.2 0,0.1 0,0.12 0,0.18 0,0.1 0,0.11 0,0.17 0,0.1 0,0.1 0,0.16 0,0.1 0,0.1 0,0.14 0,0 0,0.1 0,0.13 0,0.1 0,0.1 0,0.12 0,0 0,0.1 0,0.11 0,0.1 0,0.1 0,0.1 0,0.1 0,0.11 0,0.17 0,0.1 0,0.2 -0.1,0.31 0,0.16 -0.14,0.31 -0.25,0.45 -0.1,0.11 -0.18,0.19 -0.28,0.28 -0.12,0.1 -0.26,0.17 -0.4,0.23 -0.11,0.1 -0.23,0.1 -0.35,0.13 -0.1,0 -0.15,0.1 -0.22,0.1 -0.1,0 -0.17,0 -0.25,0 -0.1,0 -0.12,0 -0.18,0 -0.1,0 -0.15,0 -0.22,0 -0.1,0 -0.15,0 -0.23,0 -0.1,0 -0.14,0 -0.2,0 -0.1,0 -0.16,0 -0.24,0 -0.1,0 -0.17,0 -0.25,0 -0.1,0 -0.17,0 -0.25,0 -0.1,0 -0.16,0 -0.24,0 -0.1,0 -0.15,0 -0.22,0 -0.1,0 -0.12,0 -0.18,0 -0.1,0 -0.15,0 -0.23,0 -0.1,0 -0.16,0 -0.24,0 -0.1,0 -0.15,0 -0.23,0 -0.1,0 -0.14,0 -0.22,0 -0.1,0 -0.13,0 -0.2,0 -0.1,0 -0.14,0 -0.21,0 -0.1,0 -0.13,0 -0.19,0 -0.1,0 -0.14,0 -0.21,0 -0.1,0 -0.17,0 -0.25,0 -0.1,0 -0.17,0 -0.26,0 -0.1,0 -0.15,0 -0.22,0 -0.1,0 -0.19,0 -0.29,0 -0.1,0 -0.19,0 -0.29,0 -0.1,0 -0.16,0 -0.24,0 -0.1,0 -0.15,0 -0.24,0 -0.1,0 -0.15,0 -0.23,0 -0.1,0 -0.16,0 -0.24,0 -0.1,0 -0.15,0 -0.23,0 -0.1,0 -0.14,0 -0.22,0 -0.1,0 -0.14,0 -0.2,0 -0.1,0 -0.15,0 -0.22,0 -0.1,0 -0.14,0 -0.21,0 -0.1,0 -0.11,0 -0.17,0 -0.1,0 -0.12,0 -0.18,0 0,0 -0.1,0 -0.15,0 -0.1,0 -0.13,0 -0.2,0 -0.1,0 -0.11,0 -0.17,0 -0.1,0 -0.11,0 -0.16,0 -0.1,0 -0.1,0 -0.16,0 0,0 -0.1,0 -0.13,0 -0.1,0 -0.1,0 0,0 0,0 -0.39,-2.59 -0.39,-2.59 v 0 c 0.1,0 0.17,0 0.26,0 0,0 0.1,0 0.14,0 0.1,0 0.1,0 0.14,0 0.1,0 0.12,0 0.17,0 0.1,0 0.12,0 0.17,0 0.1,0 0.13,0 0.2,0 0.1,0 0.16,0 0.24,0 0.1,0 0.15,0 0.23,0 0.1,0 0.15,0 0.22,0 0.1,0 0.14,0 0.22,0 0.1,0 0.14,0 0.21,0 0.1,0 0.15,0 0.22,0 0.1,0 0.15,0 0.22,0 0.1,0 0.15,0 0.23,0 0.1,0 0.17,0 0.25,0 0.1,0 0.16,0 0.25,0 0.1,0 0.16,0 0.23,0 0.1,0 0.17,0 0.25,0 0.1,0 0.15,0 0.22,0 0.1,0 0.14,0 0.21,0 0.1,0 0.15,0 0.22,0 0.1,0 0.14,0 0.21,0 0.1,0 0.12,0 0.19,0 0.1,0 0.12,0 0.18,0 0.1,0 0.13,0 0.19,0 0.1,0 0.13,0 0.19,0 0.1,0 0.14,0 0.2,0 0.1,0 0.14,0 0.21,0 0.1,0 0.15,0 0.23,0 0.1,0 0.14,0 0.21,0 0.1,0 0.13,0 0.21,0 0.1,0 0.16,0 0.25,0 0.1,0 0.14,0 0.22,0 0.1,0 0.16,0 0.23,0 0.1,0 0.16,0 0.24,0 0.1,0 0.15,0 0.22,0 0.1,0 0.15,0 0.23,0 0.1,0 0.16,0 0.25,0 0.1,0 0.12,0 0.19,0 0,0 0.1,0 0.15,0 0,0 0.1,0 0.12,0 0.1,0 0,0 0.1,0 0,0 0,0 0,0 0,0 -0.1,0 -0.14,0 -0.1,0.1 -0.17,0.1 -0.24,0.15 -0.1,0.1 -0.12,0.11 -0.17,0.17 -0.1,0.1 -0.13,0.2 -0.17,0.32 0,0.1 0,0.1 0,0.15 0,0 0,0.1 0,0 0,0 0,-0.1 0,-0.1 0,-0.1 0,-0.1 0,-0.11 0,0 0,-0.1 0,-0.13 0,-0.1 0,-0.1 0,-0.13 0,-0.1 0,-0.1 0,-0.14 0,-0.1 0,-0.1 0,-0.15 0,-0.1 0,-0.11 0,-0.17 0,-0.1 0,-0.12 0,-0.18 0,-0.1 0,-0.13 0,-0.2 0,-0.1 0,-0.14 0,-0.21 0,-0.1 0,-0.16 0,-0.23 0,-0.1 0,-0.17 0,-0.25 0,-0.1 0,-0.19 0,-0.28 0,-0.1 0,-0.2 0,-0.3 0,-0.1 0,-0.21 0,-0.32 0,-0.11 0,-0.22 0,-0.33 0,-0.12 0,-0.24 0,-0.35 0,-0.12 0,-0.24 0,-0.37 0,-0.12 0,-0.25 0,-0.37 0,-0.14 0,-0.26 0,-0.39 0,-0.13 0,-0.26 0,-0.38 0,-0.13 0,-0.27 0,-0.4 0,-0.14 0,-0.29 0,-0.43 0,-0.15 0,-0.31 0,-0.46 0,-0.15 0,-0.3 0,-0.45 0,-0.15 0,-0.3 0,-0.46 0,-0.16 0,-0.32 0,-0.48 0,-0.18 0,-0.36 0,-0.54 0,-0.18 0,-0.35 0,-0.53 0,-0.19 0,-0.37 0,-0.56 0,-0.19 0,-0.38 0,-0.58 0,-0.2 0,-0.4 0,-0.6 0,-0.2 0,-0.4 0,-0.61 0,-0.2 0,-0.41 0,-0.62 0,-0.21 0,-0.43 0,-0.65 0,-0.23 0,-0.46 0,-0.69 0,-0.25 0,-0.49 0,-0.74 0,-0.26 0,-0.52 0,-0.78 0,-0.27 0,-0.55 0,-0.82 0,-0.29 0,-0.57 0,-0.86 0,-0.29 0,-0.58 0,-0.88 0,-0.28 0,-0.58 0,-0.87 0,-0.29 0,-0.59 0,-0.88 0,-0.29 0,-0.59 0,-0.88 0,-0.3 0,-0.59 0,-0.89 0,-0.29 0,-0.59 0,-0.88 0,-0.3 0,-0.59 0,-0.88 0,-0.3 0,-0.6 0,-0.89 0,-0.29 0,-0.59 0,-0.87 0,-0.3 0,-0.6 0,-0.89 0,-0.31 0,-0.61 0,-0.9 0,-0.3 0,-0.61 0,-0.9 0,-0.31 0,-0.61 0,-0.91 0,-0.31 0,-0.62 0,-0.92 0,-0.31 0,-0.62 0,-0.92 0,-0.32 0,-0.63 0,-0.94 0,-0.31 0,-0.63 0,-0.93 0,-0.32 0,-0.64 0,-0.95 0,-0.32 0,-0.63 0,-0.95 0,-0.3 0,-0.61 0,-0.92 0,-0.31 0,-0.62 0,-0.92 0,-0.31 0,-0.61 0,-0.92 0,-0.31 0,-0.62 0,-0.93 0,-0.31 0,-0.63 0,-0.95 0,-0.32 0,-0.64 0,-0.96 0,-0.33 0,-0.65 0,-0.97 0,-0.32 0,-0.63 0,-0.95 0,-0.31 0,-0.62 0,-0.94 0,-0.3 0,-0.6 0,-0.91 0,-0.29 0,-0.59 0,-0.89 0,-0.3 0,-0.59 0,-0.9 0,-0.3 0,-0.59 0,-0.89 0,-0.3 0,-0.59 0,-0.89 0,-0.29 0,-0.58 0,-0.87 0,-0.29 0,-0.57 0,-0.86 0,-0.28 0,-0.57 0,-0.86 0,-0.29 0,-0.58 0,-0.87 0,-0.3 0,-0.6 0,-0.9 0,-0.29 0,-0.6 0,-0.9 0,-0.3 0,-0.6 0,-0.9 0,-0.3 0,-0.61 0,-0.91 0,-0.3 0,-0.61 0,-0.91 0,-0.3 0,-0.61 -0.1,-0.92 0,-0.3 0,-0.6 0,-0.91 0,-0.3 0,-0.61 0,-0.92 0,-0.3 0,-0.61 0,-0.92 0,-0.31 0,-0.62 0,-0.93 0,-0.31 0,-0.62 -0.1,-0.93 0,-0.31 0,-0.63 0,-0.95 0,-0.33 0,-0.66 0,-0.99 0,-0.34 0,-0.67 0,-1.01 0,-0.34 0,-0.69 0,-1.03 0,-0.34 0,-0.69 -0.1,-1.03 0,-0.35 0,-0.69 0,-1.03 0,-0.34 0,-0.68 0,-1.01 0,-0.34 0,-0.67 0,-1.01 0,-0.33 0,-0.66 0,-0.99 0,-0.32 0,-0.65 0,-0.98 0,-0.32 0,-0.63 0,-0.96 0,-0.32 0,-0.63 0,-0.95 0,-0.32 0,-0.63 0,-0.95 0,-0.32 0,-0.64 0,-0.95 0,-0.32 0,-0.64 0,-0.95 0,-0.32 0,-0.64 0,-0.95 0,-0.31 0,-0.61 0,-0.91 0,-0.3 0,-0.59 0,-0.88 0,-0.28 0,-0.56 0.1,-0.83 0,-0.25 0,-0.51 0,-0.76 0,-0.24 0,-0.48 0,-0.71 0,-0.23 0,-0.45 0,-0.68 0,-0.21 0,-0.43 0,-0.64 0,-0.19 0,-0.39 0,-0.58 0,-0.18 0,-0.36 0.1,-0.55 0,-0.18 0,-0.36 0,-0.54 0,-0.18 0,-0.36 0,-0.53 0,-0.18 0,-0.35 0,-0.51 0,-0.17 0,-0.34 0,-0.5 0,-0.16 0,-0.32 0.1,-0.47 0,-0.15 0,-0.3 0,-0.45 0,-0.14 0,-0.28 0,-0.42 0,-0.13 0,-0.26 0,-0.39 0,-0.12 0,-0.24 0,-0.36 0,-0.1 0,-0.21 0,-0.32 0,-0.1 0,-0.18 0,-0.27 0,-0.1 0,-0.17 0,-0.26 0,-0.1 0,-0.15 0,-0.23 0,-0.1 0,-0.17 0,-0.25 0,0 0,-0.1 0,-0.14 0,0 0,-0.1 0,-0.13 0,0 0,-0.1 0,0 0,0.1 0.1,0.18 0.16,0.26 0.15,0.15 0.32,0.28 0.52,0.35 0.15,0 0.29,0.1 0.44,0.1 0.12,0 0,0 0,0 0,0 -0.1,0 -0.1,0 0,0 -0.1,0 -0.12,0 0,0 -0.1,0 -0.13,0 0,0 -0.1,0 -0.14,0 0,0 -0.1,0 -0.15,0 -0.1,0 -0.11,0 -0.16,0 -0.1,0 -0.12,0 -0.18,0 -0.1,0 -0.13,0 -0.19,0 -0.1,0 -0.14,0 -0.21,0 -0.1,0 -0.15,0 -0.23,0 -0.1,0 -0.16,0 -0.24,0 -0.1,0 -0.17,0 -0.25,0 -0.1,0 -0.17,0 -0.25,0 -0.1,0 -0.18,0 -0.28,0 -0.1,0 -0.16,0 -0.25,0 -0.1,0 -0.18,0 -0.27,0 -0.1,0 -0.2,0 -0.3,0 -0.11,0 -0.22,0 -0.32,0 -0.1,0 -0.21,0 -0.32,0 -0.11,0 -0.22,0 -0.34,0 -0.12,0 -0.24,0 -0.36,0 -0.12,0 -0.24,0 -0.37,0 -0.13,0 -0.26,0 -0.39,0 -0.16,0 -0.31,0 -0.47,0 -0.12,0 -0.25,0 -0.38,0 -0.1,0 -0.21,0 -0.33,0 -0.12,0 -0.24,0 -0.37,0 -0.13,0 -0.25,0 -0.38,0 -0.1,0 -0.19,0 -0.29,0 -0.1,0 -0.18,0 -0.27,0 0,0 0.1,-2.61 0.1,-2.61 z"
       id="path6984"
       style="color:#000000;display:inline;overflow:visible;visibility:visible;fill:#0169c9;fill-opacity:1;fill-rule:nonzero;stroke:#636466;stroke-width:0.138454;stroke-linecap:butt;stroke-linejoin:round;stroke-miterlimit:4;stroke-dasharray:none;stroke-dashoffset:0;stroke-opacity:1;marker:none;enable-background:accumulate" />
    <text
       id="text6986"
       y="2008.05"
       x="-1926.87"
       style="color:#000000;font-style:normal;font-variant:normal;font-weight:900;font-stretch:normal;font-size:24px;line-height:0%;font-family:'Trebuchet MS';-inkscape-font-specification:'Trebuchet MS';text-indent:0;text-align:start;text-decoration:none;text-decoration-line:none;letter-spacing:normal;word-spacing:normal;text-transform:none;writing-mode:lr-tb;direction:ltr;text-anchor:start;display:inline;overflow:visible;visibility:visible;fill:#009100;fill-opacity:1;fill-rule:nonzero;stroke:none;stroke-width:0.556118;marker:none;enable-background:accumulate"
       xml:space="preserve"><tspan
         y="2008.05"
         x="-1926.87"
         id="tspan6988"
         sodipodi:role="line"
         style="font-size:24px;line-height:1;fill:#009100;fill-opacity:1;stroke-width:0.556118">c</tspan></text>
    <path
       inkscape:connector-curvature="0"
       style="color:#000000;display:inline;overflow:visible;visibility:visible;fill:#0197fd;stroke:#0197fd;stroke-width:1.88709;stroke-miterlimit:4;stroke-dasharray:none;marker:none;marker-start:url(#Arrow1MstartH);marker-end:url(#Arrow1Mendj);enable-background:accumulate"
       d="m -1989.74,2037.3 34.29,27.17"
       id="path6998" />
    <path
       inkscape:connector-curvature="0"
       id="path7000"
       d="m -1956.55,2036.84 -34.28,27.16"
       style="color:#000000;display:inline;overflow:visible;visibility:visible;fill:none;stroke:#f44800;stroke-width:1.88709;stroke-miterlimit:4;stroke-dasharray:none;marker:none;marker-start:url(#Arrow1MstartV);marker-end:url(#Arrow1MendM);enable-background:accumulate" />
    <text
       xml:space="preserve"
       style="color:#000000;font-style:normal;font-variant:normal;font-weight:900;font-stretch:normal;font-size:36px;line-height:0%;font-family:'Trebuchet MS';-inkscape-font-specification:'Trebuchet MS';text-indent:0;text-align:start;text-decoration:none;text-decoration-line:none;letter-spacing:normal;word-spacing:normal;text-transform:none;writing-mode:lr-tb;direction:ltr;text-anchor:start;display:inline;overflow:visible;visibility:visible;fill:#ef2929;fill-opacity:1;fill-rule:nonzero;stroke:none;stroke-width:0.55612;marker:none;enable-background:accumulate"
       x="-2314.48"
       y="1908.8"
       id="text4065-8-8-2-8"
       transform="scale(0.943851,1.05949)"><tspan
         sodipodi:role="line"
         id="tspan4067-0-9-8-1"
         x="-2314.48"
         y="1908.8"
         style="font-size:36px;line-height:1;fill:#ef2929;fill-opacity:1;stroke-width:0.55612"></tspan></text>
    <text
       xml:space="preserve"
       style="color:#000000;font-style:normal;font-variant:normal;font-weight:900;font-stretch:normal;font-size:36px;line-height:0%;font-family:'Trebuchet MS';-inkscape-font-specification:'Trebuchet MS';text-indent:0;text-align:start;text-decoration:none;text-decoration-line:none;letter-spacing:normal;word-spacing:normal;text-transform:none;writing-mode:lr-tb;direction:ltr;text-anchor:start;display:inline;overflow:visible;visibility:visible;fill:#19aeff;fill-opacity:1;fill-rule:nonzero;stroke:none;stroke-width:0.55612;marker:none;enable-background:accumulate"
       x="-2159.61"
       y="1909.15"
       id="text4065-8-8-2-8-5"
       transform="scale(0.943851,1.05949)"><tspan
         sodipodi:role="line"
         id="tspan4067-0-9-8-1-8"
         x="-2159.61"
         y="1909.15"
         style="font-size:36px;line-height:1;fill:#19aeff;fill-opacity:1;stroke-width:0.55612">+</tspan></text>
    <path
       inkscape:connector-curvature="0"
       style="color:#000000;display:inline;overflow:visible;visibility:visible;fill:none;stroke:#204a87;stroke-width:1.76946;stroke-miterlimit:4;stroke-dasharray:none;stroke-opacity:1;marker:none;enable-background:accumulate"
       d="m -2260.36,2020.08 v 57.35"
       id="path8249-2" />
    <path
       inkscape:connector-curvature="0"
       style="color:#000000;display:inline;overflow:visible;visibility:visible;fill:none;stroke:#204a87;stroke-width:1.76946;stroke-miterlimit:4;stroke-dasharray:none;stroke-opacity:1;marker:none;enable-background:accumulate"
       d="m -2202.46,2020.29 v 57.35"
       id="path8249-2-7" />
    <path
       inkscape:connector-curvature="0"
       id="path5525"
       d="m -2149.47,2020.29 v 57.35"
       style="color:#000000;display:inline;overflow:visible;visibility:visible;fill:none;stroke:#204a87;stroke-width:1.76946;stroke-miterlimit:4;stroke-dasharray:none;stroke-opacity:1;marker:none;enable-background:accumulate" />
    <path
       inkscape:connector-curvature="0"
       style="color:#000000;display:inline;overflow:visible;visibility:visible;fill:none;stroke:#204a87;stroke-width:1.76946;stroke-miterlimit:4;stroke-dasharray:none;stroke-opacity:1;marker:none;enable-background:accumulate"
       d="m -2055.57,2020.29 v 57.35"
       id="path5527" />
    <path
       inkscape:connector-curvature="0"
       id="path5529"
       d="m -2002.25,2020.29 v 57.35"
       style="color:#000000;display:inline;overflow:visible;visibility:visible;fill:none;stroke:#204a87;stroke-width:1.76946;stroke-miterlimit:4;stroke-dasharray:none;stroke-opacity:1;marker:none;enable-background:accumulate" />
    <path
       inkscape:connector-curvature="0"
       style="color:#000000;display:inline;overflow:visible;visibility:visible;fill:none;stroke:#204a87;stroke-width:1.76946;stroke-miterlimit:4;stroke-dasharray:none;stroke-opacity:1;marker:none;enable-background:accumulate"
       d="m -1943.73,2020.29 v 57.35"
       id="path5531" />
    <text
       xml:space="preserve"
       style="color:#000000;font-style:normal;font-variant:normal;font-weight:normal;font-stretch:normal;font-size:24px;line-height:0%;font-family:'Trebuchet MS';-inkscape-font-specification:'Trebuchet MS';text-indent:0;text-align:center;text-decoration:none;text-decoration-line:none;letter-spacing:normal;word-spacing:normal;text-transform:none;writing-mode:lr-tb;direction:ltr;text-anchor:middle;display:inline;overflow:visible;visibility:visible;fill:#edd400;fill-opacity:1;fill-rule:nonzero;stroke:none;stroke-width:1.55203;marker:none;enable-background:accumulate"
       x="-2268.66"
       y="2019.4"
       id="text6253"><tspan
         sodipodi:role="line"
         id="tspan6255"
         x="-2268.66"
         y="2019.4"
         style="font-size:24px;line-height:1;fill:#edd400;fill-opacity:1;stroke-width:1.55203">x</tspan></text>
    <text
       xml:space="preserve"
       style="color:#000000;font-style:normal;font-variant:normal;font-weight:normal;font-stretch:normal;font-size:24px;line-height:0%;font-family:'Trebuchet MS';-inkscape-font-specification:'Trebuchet MS';text-indent:0;text-align:center;text-decoration:none;text-decoration-line:none;letter-spacing:normal;word-spacing:normal;text-transform:none;writing-mode:lr-tb;direction:ltr;text-anchor:middle;display:inline;overflow:visible;visibility:visible;fill:#edd400;fill-opacity:1;fill-rule:nonzero;stroke:none;stroke-width:1.55203;marker:none;enable-background:accumulate"
       x="-2102.82"
       y="2023.71"
       id="text6253-3"><tspan
         sodipodi:role="line"
         id="tspan6255-3"
         x="-2102.82"
         y="2023.71"
         style="font-size:24px;line-height:1;fill:#edd400;fill-opacity:1;stroke-width:1.55203">x</tspan></text>
    <text
       xml:space="preserve"
       style="color:#000000;font-style:normal;font-variant:normal;font-weight:normal;font-stretch:normal;font-size:24px;line-height:0%;font-family:'Trebuchet MS';-inkscape-font-specification:'Trebuchet MS';text-indent:0;text-align:center;text-decoration:none;text-decoration-line:none;letter-spacing:normal;word-spacing:normal;text-transform:none;writing-mode:lr-tb;direction:ltr;text-anchor:middle;display:inline;overflow:visible;visibility:visible;fill:#edd400;fill-opacity:1;fill-rule:nonzero;stroke:none;stroke-width:1.55203;marker:none;enable-background:accumulate"
       x="-1932.75"
       y="2019.74"
       id="text6253-1"><tspan
         sodipodi:role="line"
         id="tspan6255-1"
         x="-1932.75"
         y="2019.74"
         style="font-size:24px;line-height:1;fill:#edd400;fill-opacity:1;stroke-width:1.55203">x</tspan></text>
  </g>
</svg>
