<svg xmlns="http://www.w3.org/2000/svg" width="178.025" height="117.919" viewBox="0 0 178.025 117.919">
  <g id="matrix-skew-symmetric" transform="translate(-0.005 4.402)">
    <path id="path4" d="M13.39,3.463c-3.4-.722-7.4-.241-10.6-.4,2.8-2.245,1,2.406,1.5,3.929-.2,12.028-.8,80.189-.6,92.217.2,3.849-.3,7.7.2,11.467-1.2-.481,2.1-.16,3-.241h6.7c0,1.283,1.1,3.528-1.6,2.887-3.2-.16-6.6.241-9.7-.241-3.3-1.524-1.8-4.972-2.2-7.458,0-13.231,0-82.595.6-95.906.2-2.887-.3-5.774.2-8.58C2.39-.626,5.39.416,7.69.176c1.9.16,5.5-.561,6.1.962a19.761,19.761,0,0,0-.3,2.406Z" fill="#0169c9" stroke="#636466" stroke-linejoin="round" stroke-width="0.17"/>
    <path id="path6" d="M182.173,3.052c3.4-.46,10.4-.153,13.6-.23-3.2-2.3-.7,4.521-1.6,6.13,0,11.188.3,76.014-.3,87.2-.2,2.988.1,6.743-.3,9.425,1-.307-2.2-.153-3.1-.153h-6.7c0,1.226-1.2,3.372,1.6,2.759,3.2-.077,6.6.23,9.8-.153,3.4-1.379,1.8-4.981,2.3-7.28.3-11.954.7-77.47.3-89.424-.2-3.372.5-6.82,0-10.191-1.5-1.686-4.5-.766-6.8-1-2,.153-4.8-.383-6.1.536a22.613,22.613,0,0,1,.3,2.452Z" transform="translate(-20 1)" fill="#0169c9" stroke="#636466" stroke-linejoin="round" stroke-width="0.17"/>
    <text id="text8" transform="translate(13.812 61.738)" fill="#fd3301" font-size="26.66" font-family="ComicSansMS-Bold, Comic Sans MS" font-weight="700"><tspan x="0" y="0" xml:space="preserve"> -2</tspan></text>
    <text id="text10" transform="translate(17.586 24.598)" fill="#fd3301" font-size="26.66" font-family="ComicSansMS-Bold, Comic Sans MS" font-weight="700"><tspan x="0" y="0" xml:space="preserve">  0</tspan></text>
    <text id="text12" transform="translate(71.19 24.598)" fill="#fd3301" font-size="26.66" font-family="ComicSansMS-Bold, Comic Sans MS" font-weight="700"><tspan x="0" y="0" xml:space="preserve"> 2</tspan></text>
    <text id="text14" transform="translate(99.19 61.738)" fill="#fd3301" font-size="26.66" font-family="ComicSansMS-Bold, Comic Sans MS" font-weight="700"><tspan x="0" y="0" xml:space="preserve">   1</tspan></text>
    <text id="text16" transform="translate(102.964 24.598)" fill="#fd3301" font-size="26.66" font-family="ComicSansMS-Bold, Comic Sans MS" font-weight="700"><tspan x="0" y="0" xml:space="preserve">  11</tspan></text>
    <text id="text18" transform="translate(62.459 61.738)" fill="#fd3301" font-size="26.66" font-family="ComicSansMS-Bold, Comic Sans MS" font-weight="700"><tspan x="0" y="0" xml:space="preserve">  0</tspan></text>
    <text id="text841" transform="translate(17.586 98.878)" fill="#fd3301" font-size="26.66" font-family="ComicSansMS-Bold, Comic Sans MS" font-weight="700"><tspan x="0" y="0">-11</tspan></text>
    <text id="text843" transform="translate(110.964 98.878)" fill="#fd3301" font-size="26.66" font-family="ComicSansMS-Bold, Comic Sans MS" font-weight="700"><tspan x="0" y="0" xml:space="preserve">  0</tspan></text>
    <text id="text845" transform="translate(63.19 98.878)" fill="#fd3301" font-size="26.66" font-family="ComicSansMS-Bold, Comic Sans MS" font-weight="700"><tspan x="0" y="0" xml:space="preserve"> -1</tspan></text>
  </g>
</svg>
